<svg width="657" height="669" viewBox="0 0 657 669" fill="none" xmlns="http://www.w3.org/2000/svg">
<path d="M108.013 255.071C186.503 138.82 224.251 2.21646 364.456 3.64008C504.661 5.06371 617.165 119.942 615.74 260.227C614.316 400.512 487.073 453.893 359.298 511.658C-55.7249 699.284 -67.6118 515.191 108.013 255.071Z" fill="#6C6C6C"/>
<path d="M525.408 197.918C551.585 197.918 572.805 176.688 572.805 150.499C572.805 124.31 551.585 103.08 525.408 103.08C499.232 103.08 478.011 124.31 478.011 150.499C478.011 176.688 499.232 197.918 525.408 197.918Z" fill="#E6E6E6"/>
<path d="M520.746 123.291C523.75 123.291 526.185 120.855 526.185 117.85C526.185 114.844 523.75 112.408 520.746 112.408C517.742 112.408 515.307 114.844 515.307 117.85C515.307 120.855 517.742 123.291 520.746 123.291Z" fill="#CBCBCB"/>
<path d="M530.07 177.707C533.074 177.707 535.509 175.27 535.509 172.265C535.509 169.26 533.074 166.823 530.07 166.823C527.066 166.823 524.631 169.26 524.631 172.265C524.631 175.27 527.066 177.707 530.07 177.707Z" fill="#CBCBCB"/>
<path d="M551.049 145.835C553.195 145.835 554.934 144.094 554.934 141.948C554.934 139.801 553.195 138.061 551.049 138.061C548.904 138.061 547.164 139.801 547.164 141.948C547.164 144.094 548.904 145.835 551.049 145.835Z" fill="#CBCBCB"/>
<path d="M506.76 166.823C513.626 166.823 519.192 161.255 519.192 154.386C519.192 147.516 513.626 141.948 506.76 141.948C499.894 141.948 494.328 147.516 494.328 154.386C494.328 161.255 499.894 166.823 506.76 166.823Z" fill="#CBCBCB"/>
<path d="M362.239 231.345C366.53 231.345 370.009 227.864 370.009 223.571C370.009 219.278 366.53 215.797 362.239 215.797C357.947 215.797 354.469 219.278 354.469 223.571C354.469 227.864 357.947 231.345 362.239 231.345Z" fill="#4EB4F9"/>
<path d="M570.474 251.556C574.765 251.556 578.244 248.076 578.244 243.782C578.244 239.489 574.765 236.009 570.474 236.009C566.183 236.009 562.704 239.489 562.704 243.782C562.704 248.076 566.183 251.556 570.474 251.556Z" fill="#4EB4F9"/>
<path d="M121.77 296.547C126.061 296.547 129.54 293.067 129.54 288.774C129.54 284.48 126.061 281 121.77 281C117.479 281 114 284.48 114 288.774C114 293.067 117.479 296.547 121.77 296.547Z" fill="#4EB4F9"/>
<path d="M478.011 263.216C480.586 263.216 482.673 261.128 482.673 258.552C482.673 255.976 480.586 253.888 478.011 253.888C475.437 253.888 473.349 255.976 473.349 258.552C473.349 261.128 475.437 263.216 478.011 263.216Z" fill="#E6E6E6"/>
<path d="M119.038 410.138C121.613 410.138 123.7 408.05 123.7 405.474C123.7 402.898 121.613 400.81 119.038 400.81C116.463 400.81 114.376 402.898 114.376 405.474C114.376 408.05 116.463 410.138 119.038 410.138Z" fill="#E6E6E6"/>
<path d="M394.872 535.294C397.447 535.294 399.534 533.205 399.534 530.629C399.534 528.053 397.447 525.965 394.872 525.965C392.298 525.965 390.21 528.053 390.21 530.629C390.21 533.205 392.298 535.294 394.872 535.294Z" fill="#E6E6E6"/>
<path d="M467.911 396.951L465.585 399.263L463.273 396.935L461.723 398.476L464.033 400.805L461.706 403.116L463.247 404.669L465.574 402.356L467.886 404.685L469.437 403.143L467.125 400.815L469.452 398.503L467.911 396.951Z" fill="#4EB4F9"/>
<path d="M215.205 581.016L212.879 583.328L210.567 581L209.016 582.542L211.327 584.87L209 587.182L210.541 588.734L212.868 586.422L215.179 588.75L216.73 587.208L214.419 584.88L216.746 582.568L215.205 581.016Z" fill="#4EB4F9"/>
<path d="M278.205 149.016L275.879 151.328L273.567 149L272.016 150.542L274.327 152.87L272 155.182L273.541 156.734L275.868 154.422L278.179 156.75L279.73 155.208L277.419 152.88L279.746 150.568L278.205 149.016Z" fill="#4EB4F9"/>
<path d="M159.443 473.133L157.116 475.444L154.805 473.116L153.254 474.658L155.565 476.986L153.238 479.298L154.779 480.85L157.105 478.538L159.417 480.866L160.968 479.324L158.657 476.997L160.984 474.684L159.443 473.133Z" fill="#E6E6E6"/>
<path d="M178.091 337.871L175.764 340.183L173.453 337.856L171.902 339.396L174.213 341.725L171.886 344.037L173.427 345.589L175.753 343.277L178.065 345.605L179.616 344.064L177.305 341.736L179.632 339.423L178.091 337.871Z" fill="#E6E6E6"/>
<path d="M584.461 194.059L582.134 196.371L579.823 194.043L578.272 195.584L580.583 197.913L578.256 200.225L579.797 201.777L582.124 199.465L584.435 201.793L585.986 200.252L583.675 197.923L586.002 195.611L584.461 194.059Z" fill="#E6E6E6"/>
<path d="M401.09 258.58L398.763 260.893L396.451 258.564L394.9 260.106L397.211 262.433L394.885 264.746L396.425 266.298L398.752 263.986L401.063 266.314L402.614 264.772L400.304 262.444L402.63 260.132L401.09 258.58Z" fill="#E6E6E6"/>
<path opacity="0.8" d="M417.228 373.845L440.837 346.193L464.445 318.542L477.772 302.933C478.51 302.069 477.372 300.721 476.635 301.585L453.026 329.236L429.418 356.888L416.09 372.497C415.353 373.361 416.491 374.708 417.228 373.845Z" fill="url(#paint0_linear)"/>
<path opacity="0.8" d="M192.377 271.537L215.985 243.886L239.594 216.235L252.921 200.625C253.658 199.762 252.52 198.414 251.783 199.278L228.175 226.929L204.566 254.58L191.239 270.19C190.501 271.054 191.639 272.401 192.377 271.537Z" fill="url(#paint1_linear)"/>
<path opacity="0.8" d="M375.27 473.347L398.879 445.696L422.487 418.045L435.814 402.435C436.552 401.571 435.414 400.224 434.677 401.088L411.068 428.739L387.46 456.39L374.132 472C373.395 472.863 374.533 474.211 375.27 473.347Z" fill="url(#paint2_linear)"/>
<path opacity="0.8" d="M324.377 184.538L347.985 156.886L371.594 129.235L384.921 113.625C385.658 112.762 384.52 111.414 383.783 112.278L360.175 139.929L336.566 167.58L323.239 183.19C322.502 184.054 323.639 185.401 324.377 184.538Z" fill="url(#paint3_linear)"/>
<path d="M256.178 320.353H300.467V337.788C300.467 340.792 299.274 343.673 297.151 345.798C295.028 347.922 292.148 349.115 289.146 349.115H267.5C264.497 349.115 261.617 347.922 259.494 345.798C257.371 343.673 256.178 340.792 256.178 337.788V320.353H256.178Z" fill="#2F2E41"/>
<path d="M315.23 552.007C305.145 562.23 295.044 562.298 284.927 552.336L277.157 483.599L271.718 552.48C261.609 560.666 252.187 561.768 243.746 552.784C235.694 493.271 231.317 437.981 238.307 395.757L223.544 335.9L256.955 320.353C263.683 337.004 253.072 345.52 277.068 345.235C300.852 344.952 299.076 336.001 298.136 320.353L328.871 332.179C331.489 333.187 333.624 335.155 334.841 337.683C336.058 340.21 336.265 343.108 335.421 345.783L319.892 394.979C325.87 419.814 319.732 488.898 315.23 552.007Z" fill="#E6E6E6"/>
<path d="M268.61 611.864C268.61 611.864 243.806 614.038 240.483 612.669C240.273 612.582 240.069 612.488 239.871 612.387C234.933 609.864 234.782 602.8 239.398 599.726L249.185 593.207L240.638 547.343L273.661 547.731L268.61 611.864Z" fill="#2F2E41"/>
<path d="M287.258 612.253C287.258 612.253 312.062 614.426 315.385 613.057C315.595 612.971 315.799 612.877 315.998 612.776C320.936 610.253 321.086 603.189 316.471 600.115L306.683 593.596L318.727 547.731H284.15L287.258 612.253Z" fill="#2F2E41"/>
<path d="M228.983 448.618L233.9 468.293C234.504 470.712 234.331 473.259 233.406 475.574C232.48 477.888 230.849 479.852 228.744 481.185C227.043 482.263 225.096 482.89 223.086 483.006C221.076 483.122 219.069 482.723 217.256 481.849C215.443 480.974 213.882 479.651 212.721 478.006C211.56 476.36 210.837 474.446 210.621 472.443L209.558 462.61L205.673 369.154C205.673 361.381 207.976 353.783 212.292 347.319C216.607 340.855 222.741 335.816 229.918 332.839L237.53 329.681L228.983 448.618Z" fill="#E6E6E6"/>
<path d="M352.526 368.378L352.503 368.93L349.364 444.365L348.758 458.941L348.641 461.833L347.577 471.666C347.402 473.283 346.897 474.846 346.093 476.258C345.289 477.671 344.204 478.904 342.904 479.879C341.604 480.854 340.117 481.551 338.536 481.928C336.956 482.304 335.314 482.351 333.715 482.065C332.115 481.78 330.591 481.169 329.238 480.269C327.884 479.37 326.73 478.202 325.847 476.837C324.963 475.473 324.37 473.941 324.104 472.337C323.837 470.734 323.903 469.092 324.298 467.515L329.216 447.84L329.107 446.379L328.455 437.237L320.669 328.904L328.284 332.06C335.456 335.044 341.586 340.085 345.9 346.548C350.214 353.011 352.519 360.607 352.526 368.378Z" fill="#E6E6E6"/>
<path d="M280.308 454.222C252.084 454.222 234.673 444.429 234.427 444.287L235.204 442.941C235.551 443.141 270.468 462.737 321.769 445.751L322.258 447.227C308.74 451.793 294.576 454.155 280.308 454.222Z" fill="#2F2E41"/>
<path d="M252.36 525.892C246.149 511.91 246.117 451.136 246.119 448.556L247.673 448.558C247.673 449.186 247.702 511.578 253.78 525.261L252.36 525.892Z" fill="#2F2E41"/>
<path d="M255.591 526.519C250.058 526.519 246.381 525.34 243.985 523.988C239.621 521.526 238.721 518.172 238.685 518.031L240.19 517.645L239.437 517.838L240.189 517.641C240.22 517.759 241.006 520.552 244.817 522.673C249.013 525.007 257.458 526.749 273.859 521.788L274.308 523.276C266.459 525.65 260.341 526.519 255.591 526.519Z" fill="#2F2E41"/>
<path d="M241.712 327.769L240.159 327.845L246.12 449.601L247.672 449.525L241.712 327.769Z" fill="#2F2E41"/>
<path d="M305.062 525.892L303.642 525.261C309.72 511.578 309.75 449.186 309.749 448.558L311.303 448.556C311.305 451.136 311.274 511.91 305.062 525.892Z" fill="#2F2E41"/>
<path d="M301.831 526.519C297.081 526.519 290.965 525.651 283.114 523.276L283.564 521.788C299.964 526.749 308.408 525.008 312.605 522.673C316.416 520.552 317.201 517.759 317.233 517.641L318.737 518.031C318.701 518.172 317.801 521.526 313.437 523.988C311.041 525.34 307.363 526.519 301.831 526.519Z" fill="#2F2E41"/>
<path d="M315.704 327.769L309.756 449.526L311.309 449.602L317.257 327.845L315.704 327.769Z" fill="#2F2E41"/>
<path d="M300.374 346.006L288.812 363.107H263.948L255.635 346.006H259.286L265.502 359.998H286.481L296.582 346.006H300.374Z" fill="#4EB4F9"/>
<path d="M328.439 354.557L328.641 354.961L328.439 355.334V354.557Z" fill="black"/>
<path d="M354.08 368.378L354.057 368.93L339.317 373.213L330.195 354.961L339.527 337.843C344.074 341.526 347.741 346.179 350.259 351.462C352.777 356.746 354.082 362.525 354.08 368.378Z" fill="#4EB4F9"/>
<path d="M204.717 368.378L204.741 368.93L219.48 373.213L228.602 354.961L219.271 337.843C214.723 341.526 211.057 346.179 208.539 351.462C206.021 356.746 204.715 362.525 204.717 368.378Z" fill="#4EB4F9"/>
<path d="M278.323 333.179C301.066 333.179 319.504 314.733 319.504 291.979C319.504 269.225 301.066 250.779 278.323 250.779C255.579 250.779 237.142 269.225 237.142 291.979C237.142 314.733 255.579 333.179 278.323 333.179Z" fill="#E6E6E6"/>
<path d="M278.323 327.738C295.059 327.738 308.626 314.164 308.626 297.42C308.626 280.677 295.059 267.103 278.323 267.103C261.587 267.103 248.02 280.677 248.02 297.42C248.02 314.164 261.587 327.738 278.323 327.738Z" fill="#2F2E41"/>
<path d="M349.807 444.366L349.176 458.941L329.247 448.229L328.73 446.379L328.05 437.237L349.807 444.366Z" fill="#4EB4F9"/>
<path d="M208.058 444.366L208.721 458.941L229.668 448.229L230.212 446.379L230.926 437.237L208.058 444.366Z" fill="#4EB4F9"/>
<path d="M289.225 363.885H263.462L249.197 334.549L248.464 323.998L250.014 323.89L250.727 334.14L264.435 362.33H288.399L305.978 336.333L309.72 324.854L311.199 325.335L307.327 337.113L289.225 363.885Z" fill="#2F2E41"/>
<defs>
<linearGradient id="paint0_linear" x1="415.852" y1="337.715" x2="478.011" y2="337.715" gradientUnits="userSpaceOnUse">
<stop stop-color="white"/>
<stop offset="1" stop-color="white" stop-opacity="0.3"/>
</linearGradient>
<linearGradient id="paint1_linear" x1="191" y1="235.408" x2="253.16" y2="235.408" gradientUnits="userSpaceOnUse">
<stop stop-color="white"/>
<stop offset="1" stop-color="white" stop-opacity="0.3"/>
</linearGradient>
<linearGradient id="paint2_linear" x1="39613.8" y1="39390.1" x2="45009.9" y2="39390.1" gradientUnits="userSpaceOnUse">
<stop stop-color="white"/>
<stop offset="1" stop-color="white" stop-opacity="0.3"/>
</linearGradient>
<linearGradient id="paint3_linear" x1="39562.9" y1="39101.3" x2="44959" y2="39101.3" gradientUnits="userSpaceOnUse">
<stop stop-color="white"/>
<stop offset="1" stop-color="white" stop-opacity="0.3"/>
</linearGradient>
</defs>
</svg>
