<svg width="1440" height="490" viewBox="0 0 1440 490" fill="none" xmlns="http://www.w3.org/2000/svg">
<g clip-path="url(#clip0)">
<path d="M-66.6177 89.1193C-130.107 48.5696 -183.327 164.382 -202 227.357L-190.329 487.704L1588.31 469.272L1642 455.449L1499.62 298.779C1473.16 293.404 1392.71 258.23 1282.54 160.542C1144.82 38.4322 993.099 250.396 988.43 282.652C984.696 308.456 887.283 322.587 839.043 326.427L696.658 250.396C660.867 238.877 569.212 204.778 488.916 160.542C388.547 105.247 178.471 294.172 120.116 250.396C61.762 206.621 12.7443 139.806 -66.6177 89.1193Z" fill="#FF9E00"/>
</g>
<g clip-path="url(#clip1)">
<path d="M191.973 203.613C66.1128 295.256 -20.1245 331.914 -132 162.373V490H1564.06C1564.84 435.014 1581.53 390.873 1564.06 285.025C1540.08 139.654 1548.46 -27.7874 1441.25 50.1099C1364.38 105.961 1303.74 171.538 1254.79 215.069C1205.84 258.6 1128.93 242.562 1077.65 182.994C1032.14 130.117 937.809 -14.0413 844.58 13.4519C751.35 40.9451 651.128 265.473 504.292 242.562C357.455 219.651 326.012 106.014 191.973 203.613Z" fill="#F9F9F9"/>
</g>
<g clip-path="url(#clip2)">
<path d="M583.328 339.824H566.1V398.496H583.328V339.824Z" fill="#F2F2F2"/>
<path d="M594.705 387.459L552.804 338.416L468.698 339.172L417.677 388.066L418.708 388.718H418.339V490.416H594.593V388.718L594.705 387.459Z" fill="#F2F2F2"/>
<path d="M552.848 338.52L500.503 398.9V490.416H594.593V387.414L552.848 338.52Z" fill="#E6E6E6"/>
<path d="M557.487 439.806H538.271V456.517H557.487V439.806Z" fill="#3F3D56"/>
<path d="M557.487 410.883H538.271V427.328H557.487V410.883Z" fill="#3F3D56"/>
<path d="M557.487 439.806H538.271V456.517H557.487V439.806Z" fill="white"/>
<path d="M557.487 410.883H538.271V427.328H557.487V410.883Z" fill="white"/>
<path d="M472.091 435.372H452.876V452.083H472.091V435.372Z" fill="white"/>
<path d="M472.091 406.449H452.876V422.894H472.091V406.449Z" fill="white"/>
<path d="M447.377 339.824H430.15V398.496H447.377V339.824Z" fill="#F2F2F2"/>
<path d="M458.755 387.459L416.854 338.416L332.747 339.172L281.726 388.066L282.757 388.718H282.389V490.416H458.642V388.718L458.755 387.459Z" fill="#F2F2F2"/>
<path d="M416.898 338.52L364.552 398.9V490.416H458.642V387.414L416.898 338.52Z" fill="#E6E6E6"/>
<path d="M421.536 439.806H402.32V456.517H421.536V439.806Z" fill="#3F3D56"/>
<path d="M421.536 410.883H402.32V427.328H421.536V410.883Z" fill="#3F3D56"/>
<path d="M421.536 439.806H402.32V456.517H421.536V439.806Z" fill="white"/>
<path d="M421.536 410.883H402.32V427.328H421.536V410.883Z" fill="white"/>
<path d="M336.141 435.372H316.925V452.083H336.141V435.372Z" fill="white"/>
<path d="M336.141 406.449H316.925V422.894H336.141V406.449Z" fill="white"/>
<path d="M308.172 289.189H285.152V367.589H308.172V289.189Z" fill="#F2F2F2"/>
<path d="M323.375 352.84L267.386 287.307L154.998 288.318L86.8223 353.651L88.1996 354.522H87.7077V490.416H323.224V354.522L323.375 352.84Z" fill="#F2F2F2"/>
<path d="M267.444 287.447L197.497 368.129V490.416H323.224V352.78L267.444 287.447Z" fill="#E6E6E6"/>
<path d="M273.642 422.789H247.965V445.118H273.642V422.789Z" fill="#3F3D56"/>
<path d="M273.642 384.14H247.965V406.115H273.642V384.14Z" fill="#3F3D56"/>
<path d="M273.642 422.789H247.965V445.118H273.642V422.789Z" fill="white"/>
<path d="M273.642 384.14H247.965V406.115H273.642V384.14Z" fill="white"/>
<path d="M159.533 416.865H133.856V439.193H159.533V416.865Z" fill="white"/>
<path d="M159.533 378.215H133.856V400.19H159.533V378.215Z" fill="white"/>
<path d="M154.753 469.247C163.933 469.247 171.375 454.308 171.375 435.879C171.375 417.45 163.933 402.51 154.753 402.51C145.573 402.51 138.131 417.45 138.131 435.879C138.131 454.308 145.573 469.247 154.753 469.247Z" fill="#3F3D56"/>
<path d="M156.288 490.498C149.63 451.2 156.221 412.043 156.288 411.653L157.583 411.868C157.516 412.257 150.963 451.208 157.583 490.286L156.288 490.498Z" fill="#FF9E00"/>
<path d="M169.387 428.703L154.356 436.614L154.976 437.753L170.007 429.843L169.387 428.703Z" fill="#FF9E00"/>
<path d="M139.112 432.666L138.492 433.805L153.521 441.72L154.141 440.58L139.112 432.666Z" fill="#FF9E00"/>
<path d="M114.815 449.682C132.77 449.682 147.326 420.462 147.326 384.417C147.326 348.372 132.77 319.152 114.815 319.152C96.8593 319.152 82.3036 348.372 82.3036 384.417C82.3036 420.462 96.8593 449.682 114.815 449.682Z" fill="#FF9E00"/>
<path d="M118.436 491.144C105.432 414.382 118.305 337.901 118.436 337.137L119.731 337.353C119.6 338.114 106.765 414.391 119.731 490.932L118.436 491.144Z" fill="#3F3D56"/>
<path d="M143.734 370.927L114.334 386.399L114.954 387.538L144.354 372.067L143.734 370.927Z" fill="#3F3D56"/>
<path d="M83.9271 378.677L83.3072 379.817L112.702 395.296L113.322 394.157L83.9271 378.677Z" fill="#3F3D56"/>
<path d="M191.814 434.445C216.385 434.445 236.303 394.46 236.303 345.135C236.303 295.811 216.385 255.825 191.814 255.825C167.244 255.825 147.326 295.811 147.326 345.135C147.326 394.46 167.244 434.445 191.814 434.445Z" fill="#FF9E00"/>
<path d="M197.009 491.144C179.221 386.141 196.829 281.521 197.009 280.476L198.304 280.692C198.124 281.735 180.554 386.149 198.304 490.932L197.009 491.144Z" fill="#3F3D56"/>
<path d="M231.502 326.885L191.272 348.057L191.891 349.197L232.122 328.025L231.502 326.885Z" fill="#3F3D56"/>
<path d="M149.433 337.491L148.813 338.631L189.038 359.813L189.658 358.673L149.433 337.491Z" fill="#3F3D56"/>
<path d="M565.551 469.247C574.731 469.247 582.173 454.308 582.173 435.879C582.173 417.45 574.731 402.51 565.551 402.51C556.371 402.51 548.929 417.45 548.929 435.879C548.929 454.308 556.371 469.247 565.551 469.247Z" fill="#3F3D56"/>
<path d="M564.016 490.498C570.673 451.2 564.083 412.043 564.016 411.653L562.721 411.868C562.788 412.257 569.34 451.208 562.72 490.286L564.016 490.498Z" fill="#FF9E00"/>
<path d="M550.917 428.703L550.297 429.843L565.328 437.753L565.948 436.613L550.917 428.703Z" fill="#FF9E00"/>
<path d="M581.192 432.666L566.162 440.58L566.782 441.72L581.812 433.805L581.192 432.666Z" fill="#FF9E00"/>
<path d="M605.489 449.682C623.444 449.682 638 420.462 638 384.417C638 348.372 623.444 319.152 605.489 319.152C587.534 319.152 572.978 348.372 572.978 384.417C572.978 420.462 587.534 449.682 605.489 449.682Z" fill="#FF9E00"/>
<path d="M601.868 491.144C614.871 414.382 601.999 337.901 601.867 337.137L600.572 337.353C600.704 338.114 613.538 414.391 600.572 490.932L601.868 491.144Z" fill="#3F3D56"/>
<path d="M576.57 370.927L575.95 372.067L605.349 387.538L605.969 386.399L576.57 370.927Z" fill="#3F3D56"/>
<path d="M636.377 378.677L606.981 394.157L607.601 395.296L636.997 379.817L636.377 378.677Z" fill="#3F3D56"/>
<path d="M528.489 434.445C553.06 434.445 572.978 394.46 572.978 345.135C572.978 295.811 553.06 255.825 528.489 255.825C503.919 255.825 484.001 295.811 484.001 345.135C484.001 394.46 503.919 434.445 528.489 434.445Z" fill="#FF9E00"/>
<path d="M523.295 491.144C541.083 386.141 523.475 281.521 523.295 280.476L522 280.692C522.179 281.735 539.75 386.149 521.999 490.932L523.295 491.144Z" fill="#3F3D56"/>
<path d="M488.801 326.885L488.182 328.025L528.412 349.197L529.032 348.057L488.801 326.885Z" fill="#3F3D56"/>
<path d="M570.871 337.491L530.646 358.673L531.265 359.813L571.49 338.631L570.871 337.491Z" fill="#3F3D56"/>
<path d="M404.795 294.812L410.053 290.674C405.968 290.231 404.29 292.423 403.603 294.158C400.411 292.854 396.937 294.563 396.937 294.563L407.458 298.321C406.928 296.926 406.004 295.709 404.795 294.812V294.812Z" fill="#3F3D56"/>
<path d="M276.27 258.282L281.528 254.144C277.443 253.701 275.765 255.893 275.078 257.628C271.886 256.324 268.412 258.032 268.412 258.032L278.933 261.79C278.403 260.396 277.479 259.178 276.27 258.282V258.282Z" fill="#3F3D56"/>
<path d="M485.908 241.984L491.167 237.846C487.082 237.402 485.403 239.594 484.716 241.329C481.525 240.026 478.051 241.734 478.051 241.734L488.572 245.492C488.041 244.097 487.117 242.88 485.908 241.984V241.984Z" fill="#3F3D56"/>
<path d="M496.525 483.413C495.127 483.413 493.754 483.775 492.544 484.464C491.315 483.37 489.79 482.651 488.154 482.394C486.518 482.137 484.841 482.353 483.327 483.015C481.813 483.678 480.527 484.758 479.625 486.126C478.723 487.493 478.244 489.089 478.246 490.719H504.494C504.351 488.736 503.449 486.879 501.971 485.524C500.492 484.168 498.546 483.414 496.525 483.413V483.413Z" fill="#3F3D56"/>
<path d="M229.765 483.413C228.367 483.413 226.994 483.775 225.784 484.464C224.555 483.37 223.03 482.651 221.393 482.394C219.757 482.137 218.08 482.353 216.566 483.015C215.052 483.678 213.766 484.758 212.865 486.126C211.963 487.493 211.484 489.089 211.486 490.719H237.733C237.59 488.736 236.688 486.879 235.21 485.524C233.731 484.168 231.786 483.414 229.765 483.413V483.413Z" fill="#3F3D56"/>
<path d="M366.287 483.413C364.889 483.413 363.516 483.775 362.306 484.464C361.077 483.37 359.552 482.651 357.915 482.394C356.279 482.137 354.602 482.353 353.088 483.015C351.574 483.678 350.288 484.758 349.387 486.126C348.485 487.493 348.006 489.089 348.008 490.719H374.255C374.112 488.736 373.211 486.879 371.732 485.524C370.254 484.168 368.308 483.414 366.287 483.413V483.413Z" fill="#3F3D56"/>
<path d="M337.479 464.966H261.753V467.369H273.563V490.201H276.006V467.369H322.005V490.201H324.448V467.369H337.479V464.966Z" fill="#3F3D56"/>
<path d="M337.628 457.776H261.902V460.179H337.628V457.776Z" fill="#3F3D56"/>
<path d="M337.628 451.767H261.902V454.171H337.628V451.767Z" fill="#3F3D56"/>
<path d="M337.628 445.759H261.902V448.162H337.628V445.759Z" fill="#3F3D56"/>
<path d="M455.722 464.966H379.996V467.369H391.806V490.201H394.249V467.369H440.247V490.201H442.691V467.369H455.722V464.966Z" fill="#3F3D56"/>
<path d="M455.871 457.776H380.145V460.179H455.871V457.776Z" fill="#3F3D56"/>
<path d="M455.871 451.767H380.145V454.171H455.871V451.767Z" fill="#3F3D56"/>
<path d="M455.871 445.759H380.145V448.162H455.871V445.759Z" fill="#3F3D56"/>
</g>
<defs>
<clipPath id="clip0">
<rect width="1440" height="419.314" fill="white" transform="translate(0 70.704)"/>
</clipPath>
<clipPath id="clip1">
<rect width="1440" height="491" fill="white"/>
</clipPath>
<clipPath id="clip2">
<rect width="570" height="253.356" fill="white" transform="translate(68 237.788)"/>
</clipPath>
</defs>
</svg>
