<svg width="15" height="183" viewBox="0 0 15 183" fill="none" xmlns="http://www.w3.org/2000/svg">
<circle cx="7.5" cy="175.5" r="7.5" transform="rotate(-180 7.5 175.5)" fill="#FF9100"/>
<rect x="9" y="163" width="3" height="16" rx="1.5" transform="rotate(-180 9 163)" fill="#FF9100"/>
<rect x="9" y="142" width="3" height="16" rx="1.5" transform="rotate(-180 9 142)" fill="#FF9100"/>
<rect x="9" y="121" width="3" height="16" rx="1.5" transform="rotate(-180 9 121)" fill="#FF9100"/>
<rect x="9" y="100" width="3" height="16" rx="1.5" transform="rotate(-180 9 100)" fill="#FF9100"/>
<rect x="9" y="79" width="3" height="16" rx="1.5" transform="rotate(-180 9 79)" fill="#FF9100"/>
<rect x="9" y="58" width="3" height="16" rx="1.5" transform="rotate(-180 9 58)" fill="#FF9100"/>
<rect x="9" y="37" width="3" height="16" rx="1.5" transform="rotate(-180 9 37)" fill="#FF9100"/>
<rect x="9" y="16" width="3" height="16" rx="1.5" transform="rotate(-180 9 16)" fill="#FF9100"/>
</svg>
