<svg width="642" height="462" viewBox="0 0 642 462" fill="none" xmlns="http://www.w3.org/2000/svg">
<path d="M125.814 77.58C138.191 77.58 148.224 67.53 148.224 55.1328C148.224 42.7355 138.191 32.6855 125.814 32.6855C113.437 32.6855 103.404 42.7355 103.404 55.1328C103.404 67.53 113.437 77.58 125.814 77.58Z" fill="#2F2E41"/>
<path d="M57.5593 325.38L71.3274 277.551L76.0145 279.019C76.0145 279.019 70.4486 314.817 61.6605 323.913L57.5593 325.38Z" fill="#2F2E41"/>
<path d="M109.995 68.6305C109.995 68.6305 111.753 87.4099 107.652 92.6916C103.551 97.9733 110.288 108.243 110.288 108.243L122.592 122.915L140.754 114.699L143.39 99.4404L141.633 88.877C141.633 88.877 135.481 82.715 138.117 71.5647C140.754 60.4144 109.995 68.6305 109.995 68.6305Z" fill="#FFB9B9"/>
<path opacity="0.1" d="M109.995 68.6305C109.995 68.6305 111.753 87.4099 107.652 92.6916C103.551 97.9733 110.288 108.243 110.288 108.243L122.592 122.915L140.754 114.699L143.39 99.4404L141.633 88.877C141.633 88.877 135.481 82.715 138.117 71.5647C140.754 60.4144 109.995 68.6305 109.995 68.6305Z" fill="black"/>
<path d="M120.541 419.865V431.895L136.653 435.122L135.188 415.17L120.541 419.865Z" fill="#FFB9B9"/>
<path d="M168.876 415.17L165.361 431.895L172.391 436.883L184.695 427.787L183.23 413.408L168.876 415.17Z" fill="#FFB9B9"/>
<path d="M138.117 433.655C138.117 433.655 131.966 423.24 120.541 429.768C120.541 429.768 118.491 441.285 116.44 442.165C114.389 443.045 102.965 459.77 116.44 461.238C129.915 462.705 136.653 458.303 136.653 458.303C136.653 458.303 134.016 460.576 138.117 459.402C142.219 458.228 140.461 451.773 140.461 451.773L138.117 433.655Z" fill="#2F2E41"/>
<path d="M178.25 426.613C178.25 426.613 169.169 433.068 167.704 430.134C166.24 427.2 163.896 427.493 163.896 427.493C163.896 427.493 155.694 458.465 160.967 459.932C164.362 460.77 167.928 460.585 171.219 459.402C171.219 459.402 178.25 454.47 178.25 458.285C178.25 462.099 197.877 461.824 206.079 461.531C214.281 461.238 209.887 455.076 209.887 455.076L199.049 444.512L186.745 426.613C186.745 426.613 181.179 421.625 178.25 426.613Z" fill="#2F2E41"/>
<path d="M91.8331 230.309L104.137 348.561C104.137 348.561 110.874 420.744 112.046 421.918C113.218 423.092 120.834 426.906 137.532 421.918L133.723 327.434L140.754 268.749L156.865 309.242C156.865 309.242 160.674 418.104 163.31 418.104C165.947 418.104 182.058 423.385 185.866 416.93C189.675 410.474 189.089 340.932 189.089 340.932C189.089 340.932 187.331 231.19 174.442 227.669C161.552 224.147 91.8331 230.309 91.8331 230.309Z" fill="#2F2E41"/>
<path d="M125.814 79.4873C136.977 79.4873 146.027 70.4226 146.027 59.2408C146.027 48.0589 136.977 38.9942 125.814 38.9942C114.651 38.9942 105.601 48.0589 105.601 59.2408C105.601 70.4226 114.651 79.4873 125.814 79.4873Z" fill="#FFB9B9"/>
<path d="M126.986 115.579C126.986 115.579 124.935 102.962 124.935 100.614C124.935 98.2667 115.854 96.7996 115.854 96.7996C115.854 96.7996 108.824 88.877 107.359 90.0507C105.894 91.2244 83.6309 106.189 80.1156 108.243C76.6004 110.297 72.7922 119.1 73.0851 119.687C73.3781 120.274 91.5403 158.42 91.5403 158.42C91.5403 158.42 99.4496 181.894 93.8838 194.218C88.3179 206.542 81.2874 230.896 91.5403 235.885C101.793 240.873 151.593 251.73 160.674 242.34C169.755 232.95 176.2 230.309 178.543 230.309C180.887 230.309 168.876 189.523 171.513 185.708C174.149 181.894 170.341 158.126 170.341 158.126L183.816 120.274C183.816 120.274 182.644 99.147 155.987 94.4522L140.039 86.707L126.986 115.579Z" fill="#575A89"/>
<path d="M72.2063 235.591C72.2063 235.591 70.7416 249.676 70.7416 253.784C70.7416 257.892 63.7111 281.953 73.9639 284.887C84.2167 287.821 83.3379 252.903 83.3379 252.903V235.004L72.2063 235.591Z" fill="#FFB9B9"/>
<path d="M193.776 222.387C193.776 222.387 195.533 235.885 194.655 238.819C193.776 241.753 203.15 267.281 190.554 268.749C177.957 270.216 181.179 238.232 181.179 238.232V222.387L193.776 222.387Z" fill="#FFB9B9"/>
<path d="M69.5698 320.685L78.065 275.498H80.7015C82.5449 277.878 83.7539 280.689 84.2151 283.666C84.6763 286.643 84.3745 289.688 83.338 292.516C79.8227 302.493 76.8933 320.685 76.8933 320.685H69.5698Z" fill="#2F2E41"/>
<path d="M77.4792 116.166L73.0851 119.687C73.0851 119.687 67.2263 212.997 68.691 220.04C70.1557 227.082 63.4181 237.058 69.2769 237.939C75.1356 238.819 82.1662 242.634 85.3885 240.286C88.6108 237.939 89.1967 229.429 90.3685 227.375C91.5402 225.321 93.5907 200.967 93.5907 200.967C93.5907 200.967 99.7425 176.612 95.9343 158.42C92.126 140.227 88.6108 121.741 88.6108 121.741L77.4792 116.166Z" fill="#575A89"/>
<path d="M170.341 108.83L183.816 120.274L194.069 180.133C194.069 180.133 200.513 226.788 195.533 227.375C190.554 227.962 182.937 226.495 179.715 227.375C176.492 228.255 173.856 225.908 173.856 225.908C173.856 225.908 170.341 207.129 170.341 206.835C170.341 206.542 167.997 185.121 167.997 185.121L165.068 161.06L169.462 134.652L170.341 108.83Z" fill="#575A89"/>
<path d="M106.773 385.826C106.773 385.826 104.869 391.305 102.244 398.764C101.026 402.232 99.6517 406.132 98.2368 410.108C97.3258 412.678 96.4001 415.281 95.489 417.822C94.0361 421.886 92.6241 425.788 91.3908 429.139C89.7621 433.561 88.4409 437.027 87.732 438.644C84.5097 445.979 25.629 434.242 20.942 431.308C16.255 428.374 15.0832 418.397 14.4974 404.312C14.4944 404.239 14.4915 404.166 14.4915 404.092C14.4153 401.249 15.1389 397.015 16.3488 392.047C16.9522 389.565 17.6787 386.9 18.4872 384.133C19.5711 380.421 20.8014 376.531 22.0874 372.657C27.6122 356.02 34.1243 339.758 34.1243 339.758C34.1243 339.758 45.5489 331.836 49.65 326.554C53.7511 321.272 76.3075 317.164 76.3075 317.164C82.7521 317.458 97.399 342.399 103.258 350.028C109.117 357.657 106.773 385.826 106.773 385.826Z" fill="#3F3D56"/>
<path d="M73.9639 341.225C75.42 341.225 76.6004 340.043 76.6004 338.585C76.6004 337.126 75.42 335.944 73.9639 335.944C72.5078 335.944 71.3275 337.126 71.3275 338.585C71.3275 340.043 72.5078 341.225 73.9639 341.225Z" fill="#2F2E41"/>
<path d="M78.065 342.986C78.874 342.986 79.5297 342.329 79.5297 341.519C79.5297 340.709 78.874 340.052 78.065 340.052C77.2561 340.052 76.6003 340.709 76.6003 341.519C76.6003 342.329 77.2561 342.986 78.065 342.986Z" fill="#2F2E41"/>
<path d="M102.244 398.764C101.026 402.232 99.6517 406.132 98.2368 410.108L18.4872 384.133C19.5711 380.422 20.8014 376.531 22.0874 372.657L102.244 398.764Z" fill="white"/>
<path d="M95.489 417.822C94.0361 421.886 92.6241 425.789 91.3908 429.139L14.4915 404.092C14.4153 401.249 15.1389 397.015 16.3488 392.047L95.489 417.822Z" fill="white"/>
<path d="M73.9639 339.171C73.9639 339.171 79.8226 364.993 76.3074 387.88C72.7921 410.768 85.0955 432.188 85.0955 432.188" stroke="#2F2E41" stroke-width="3" stroke-miterlimit="10"/>
<path d="M78.0651 341.225C78.0651 341.225 66.6405 382.892 66.3475 388.761C66.0546 394.629 61.3676 436.59 55.5088 440.991" stroke="#2F2E41" stroke-width="3" stroke-miterlimit="10"/>
<path d="M110.296 46.8859C110.296 46.8859 105.721 34.9702 112.355 31.0747L114.185 36.3451C114.185 36.3451 130.885 26.2626 135.232 28.5541L131.114 34.0536C131.114 34.0536 150.559 34.0536 151.932 41.6155L145.069 41.8446C145.069 41.8446 152.389 46.6567 152.618 54.4478L137.977 55.3644L145.069 59.489C145.069 59.489 118.532 63.1554 112.127 52.6146L110.296 46.8859Z" fill="#2F2E41"/>
<path d="M106.334 47.3569C106.334 47.3569 111.607 57.9203 118.637 55.2794C125.668 52.6386 118.637 42.9555 118.637 42.9555L113.95 40.608L106.334 47.3569Z" fill="#2F2E41"/>
<path d="M561.027 214.006L465.414 94.3249C461.072 98.3019 455.723 101.007 449.951 102.146C431.95 105.697 414.371 93.3841 410.687 74.6447C409.417 68.4474 409.861 62.0203 411.971 56.0571C414.08 50.0939 417.776 44.8211 422.658 40.8077L390.057 3.05176e-05L204.323 159.004L375.293 373.009L561.027 214.006Z" fill="white"/>
<path d="M442.224 96.4597C457.111 96.4597 469.179 84.3714 469.179 69.4596C469.179 54.5479 457.111 42.4595 442.224 42.4595C427.337 42.4595 415.269 54.5479 415.269 69.4596C415.269 84.3714 427.337 96.4597 442.224 96.4597Z" fill="white"/>
<path d="M496.682 289.535V290.277C496.666 292.138 496.612 293.991 496.523 295.836C494.919 327.408 481.322 357.169 458.518 379.022C435.713 400.875 405.428 413.164 373.869 413.371C342.311 413.578 311.868 401.687 288.78 380.134C265.692 358.582 251.707 329.001 249.692 297.453C249.524 294.834 249.44 292.194 249.44 289.535C249.395 263.888 257.342 238.867 272.171 217.959C273.356 216.275 274.59 214.621 275.871 212.998C276.754 211.869 277.662 210.765 278.579 209.67C299.447 184.907 329.174 169.323 361.382 166.261C393.59 163.2 425.712 172.905 450.858 193.295C452.347 194.499 453.81 195.746 455.24 197.018C456.383 198.037 457.508 199.079 458.612 200.143C480.364 220.984 493.753 249.077 496.253 279.124C496.539 282.56 496.682 286.031 496.682 289.535Z" fill="#3F3D56"/>
<path d="M275.871 212.998C275.932 213.023 275.988 213.057 276.039 213.099C276.704 213.646 275.871 214.699 275.972 215.567C276.09 216.679 277.57 216.923 278.688 217.033C279.807 217.151 281.22 218.052 280.69 219.046C277.881 220.015 275.038 219.063 272.171 217.959C257.342 238.867 249.395 263.888 249.44 289.535C249.44 292.197 249.524 294.837 249.692 297.454C249.927 297.625 250.184 297.764 250.457 297.866C251.298 298.186 252.274 298.127 253.047 298.582C253.661 298.945 254.073 299.585 254.687 299.922C256.445 300.882 258.884 299.037 260.523 300.183C260.947 300.57 261.349 300.98 261.726 301.413C263.24 302.727 265.729 301.842 267.478 302.828C268.605 303.46 269.185 304.723 269.791 305.869C271.296 308.733 273.735 311.546 276.956 311.774C277.972 311.727 278.99 311.761 280 311.875C280.993 312.102 281.968 312.97 281.808 313.972C281.531 315.699 282.38 317.586 282.153 319.313C281.741 322.472 277.275 323.853 276.897 327.012C276.896 327.707 276.856 328.402 276.779 329.093C276.577 329.918 275.955 330.592 275.737 331.418C275.316 332.976 276.435 334.535 277.654 335.579C278.882 336.632 280.345 337.542 281.018 339.008C281.724 340.566 281.379 342.377 281.606 344.07C282.111 347.768 285.298 350.506 288.578 352.275C289.629 352.715 290.562 353.396 291.303 354.263C292.144 355.484 292.06 357.093 292.346 358.551C293.035 362.114 296.029 365.054 296.113 368.684C296.172 371.27 294.742 373.612 293.884 376.046C293.002 378.599 292.74 381.325 293.119 383.998C297.914 388.072 303.011 391.775 308.366 395.076C308.657 394.644 308.871 394.165 308.997 393.66C309.098 393.102 309.028 392.526 308.795 392.008C308.562 391.491 308.178 391.056 307.693 390.763C308.597 390.421 309.419 389.893 310.107 389.213C310.444 388.865 310.667 388.421 310.746 387.942C310.824 387.463 310.753 386.972 310.544 386.534C312.024 386.719 313.782 386.812 314.757 385.675C315.539 384.765 315.489 383.4 315.178 382.246C314.751 381.124 314.468 379.952 314.337 378.759C317.766 378.926 321.203 378.811 324.613 378.414C324.12 376.747 322.998 375.339 321.485 374.488C323.032 374.227 324.437 372.374 324.924 370.883C325.346 369.362 325.369 367.757 324.992 366.224C324.875 365.831 324.857 365.414 324.941 365.011C325.19 364.477 325.627 364.054 326.169 363.824C328.726 362.35 331.282 360.878 333.839 359.41C334.295 359.179 334.71 358.875 335.066 358.508C335.865 357.556 335.748 356.133 335.335 354.962C334.923 353.791 334.267 352.688 334.108 351.458C333.637 347.777 337.572 345.132 338.901 341.661C339.353 340.276 339.597 338.831 339.624 337.373C339.734 335.807 339.742 333.995 338.548 332.993C337.396 332.024 335.605 332.243 334.402 331.342C333.3 330.516 332.922 328.924 331.719 328.259C330.626 327.652 329.264 328.04 328.044 327.754C325.908 327.257 324.563 324.788 322.376 324.561C321.148 324.426 319.752 325.033 318.743 324.317C317.852 323.676 317.818 322.404 317.65 321.326C317.351 319.647 316.547 318.099 315.344 316.891C314.141 315.684 312.598 314.874 310.922 314.57C309.652 314.368 308.273 314.444 307.188 313.745C306.095 313.037 305.599 311.715 304.733 310.729C303.354 309.154 301.167 308.59 299.124 308.109C296.348 307.461 293.576 306.809 290.807 306.155C289.335 305.801 287.434 305.616 286.635 306.913C286.399 307.407 286.235 307.931 286.148 308.472C285.847 309.444 285.248 310.296 284.436 310.907C283.623 311.518 282.639 311.857 281.623 311.875C280.928 310.685 279.801 309.81 278.478 309.432C277.613 309.287 276.759 309.084 275.922 308.826C275.484 308.611 275.095 308.309 274.778 307.938C274.461 307.568 274.222 307.136 274.077 306.67C273.933 306.204 273.884 305.713 273.935 305.228C273.986 304.743 274.136 304.273 274.374 303.847C274.851 302.992 275.034 302.004 274.896 301.035C274.758 300.065 274.306 299.168 273.609 298.481C272.196 297.209 270.153 296.898 268.252 297.024C267.756 295.937 268.588 294.716 269.48 293.924C270.38 293.141 271.464 292.366 271.658 291.186C271.969 289.333 269.606 287.926 267.815 288.474C266.023 289.03 264.88 290.774 264.123 292.492C263.756 293.506 263.255 294.466 262.634 295.348C262.316 295.784 261.884 296.123 261.385 296.328C260.887 296.533 260.341 296.596 259.809 296.51C258.329 296.131 257.765 294.37 257.437 292.888C256.912 290.906 256.646 288.865 256.647 286.814C256.66 284.744 257.481 282.761 258.934 281.289C261.381 279.031 265.149 279.25 268.454 279.612C268.1 279.139 267.93 278.553 267.977 277.964C268.023 277.375 268.282 276.823 268.706 276.411C269.148 276.018 269.68 275.739 270.254 275.598C270.829 275.457 271.429 275.458 272.003 275.603C272.999 275.809 273.897 276.346 274.551 277.127C275.493 278.273 275.762 279.831 276.468 281.128C277.183 282.434 278.781 283.546 280.084 282.847C281.22 282.24 281.396 280.674 281.119 279.418C280.833 278.172 280.236 276.95 280.337 275.67C280.53 273.235 283.061 271.761 285.29 270.759C287.518 269.757 290.067 268.4 290.42 265.974C290.436 265.502 290.527 265.036 290.689 264.593C290.935 264.197 291.28 263.872 291.69 263.649C298.19 259.345 304.809 254.981 312.243 252.631C312.63 252.505 312.672 252.64 313.067 252.547C313.622 252.227 313.252 251.342 312.722 250.989C312.192 250.635 311.486 250.357 311.351 249.733C311.259 249.279 311.528 248.824 311.595 248.36C311.613 248.081 311.562 247.801 311.446 247.545C311.33 247.29 311.154 247.067 310.933 246.895C310.711 246.724 310.451 246.61 310.175 246.563C309.899 246.516 309.616 246.537 309.35 246.625C308.753 245.833 309.93 244.915 310.889 244.646C313.759 243.858 316.705 243.378 319.677 243.214C320.02 243.157 320.372 243.216 320.678 243.382C320.896 243.593 321.026 243.88 321.04 244.184C321.054 244.488 320.951 244.786 320.753 245.016C320.349 245.466 319.901 245.875 319.416 246.238C318.934 246.707 318.589 247.3 318.42 247.952C318.251 248.604 318.264 249.29 318.457 249.936C320.013 250.727 321.695 251.545 323.419 251.267C325.135 250.989 326.657 249.051 325.849 247.51C325.101 246.069 322.839 245.741 322.452 244.165C321.998 242.321 324.605 240.678 324.016 238.875C323.764 238.083 322.973 237.612 322.368 237.047C321.655 236.345 321.171 235.443 320.977 234.46C320.784 233.478 320.89 232.459 321.283 231.538C320.299 231.711 319.287 231.645 318.333 231.346C317.38 231.047 316.511 230.524 315.8 229.82C314.488 228.497 313.445 226.4 311.578 226.467C309.871 226.518 308.4 228.514 306.802 227.908C306.406 227.756 305.994 227.453 305.616 227.63C305.491 227.71 305.386 227.818 305.309 227.945C305.232 228.072 305.184 228.215 305.17 228.363C304.767 230.308 305.465 232.524 304.405 234.209C303.253 236.037 300.587 236.289 299.191 237.94C298.434 238.833 298.14 240.038 297.442 240.981C296.744 241.925 295.272 242.531 294.431 241.706C294.843 240.86 294.956 239.899 294.751 238.981C294.546 238.063 294.036 237.241 293.304 236.651C292.53 236.142 291.693 235.735 290.815 235.438C289.834 235.024 288.901 234.504 288.031 233.889C287.598 233.624 287.246 233.245 287.014 232.793C286.83 232.225 286.854 231.61 287.081 231.058C287.507 229.842 288.256 228.764 289.247 227.942C290.238 227.12 291.434 226.584 292.707 226.391C293.817 226.24 295.112 226.29 295.852 225.44C296.239 224.993 296.441 224.311 297.013 224.134C297.373 224.059 297.748 224.103 298.081 224.26C299.468 224.749 300.848 225.237 302.235 225.726C302.698 225.939 303.209 226.023 303.715 225.97C303.966 225.938 304.195 225.811 304.356 225.615C304.517 225.42 304.598 225.17 304.582 224.917C304.447 224.227 303.387 223.898 303.488 223.199C303.537 222.97 303.658 222.764 303.833 222.609C305.333 221.011 307.167 219.765 309.204 218.96C311.24 218.154 313.43 217.81 315.615 217.951C316.136 218.819 315.312 219.838 314.614 220.571C313.925 221.312 313.37 222.626 314.211 223.19C314.55 223.369 314.929 223.456 315.312 223.443C316.335 223.581 317.329 223.882 318.256 224.336C319.694 224.959 321.106 225.65 322.486 226.391C322.283 225.488 322.317 224.548 322.587 223.662C322.738 223.227 323.047 222.865 323.451 222.645C323.855 222.426 324.326 222.365 324.773 222.474C325.597 222.795 326.018 223.89 326.901 223.991C328.07 224.126 328.532 222.39 328.044 221.312C327.557 220.234 326.581 219.341 326.505 218.153C326.447 217.361 326.749 216.376 326.119 215.896C325.894 215.747 325.638 215.654 325.37 215.626C320.089 214.657 314.805 213.686 309.518 212.711C308.576 212.535 307.222 212.669 307.18 213.621C307.155 214.16 307.634 214.691 307.424 215.18C307.197 215.702 306.457 215.66 305.919 215.845C305.514 216.029 305.181 216.339 304.968 216.73C304.756 217.121 304.676 217.57 304.741 218.01C304.885 218.886 305.224 219.718 305.734 220.444C304.699 220.015 303.144 219.939 302.109 219.501C301.959 218.301 301.653 217.126 301.201 216.005C301.175 215.827 301.11 215.656 301.012 215.505C300.913 215.355 300.782 215.227 300.629 215.133C300.476 215.038 300.304 214.978 300.125 214.957C299.947 214.936 299.766 214.954 299.595 215.011C298.232 215.222 296.87 215.424 295.508 215.634C295.165 215.651 294.838 215.778 294.574 215.997C294.044 216.561 294.566 217.462 294.549 218.237C294.5 218.671 294.317 219.078 294.026 219.402C293.735 219.727 293.351 219.953 292.926 220.048C292.07 220.223 291.187 220.211 290.336 220.015C288.427 219.72 286.526 219.425 284.617 219.13C286.302 218.592 287.801 217.588 288.94 216.233C289.697 215.34 290.1 213.672 289.007 213.251C288.684 213.162 288.347 213.136 288.015 213.175C285.424 213.192 283.381 211.027 280.959 210.109C280.197 209.824 279.392 209.676 278.579 209.67L275.871 212.998Z" fill="#FF9100"/>
<path d="M496.523 295.836C496.226 296.235 495.836 296.555 495.388 296.768C494.939 296.981 494.445 297.08 493.949 297.058C491.317 296.83 490.207 293.031 487.6 292.601C487.369 292.542 487.125 292.566 486.911 292.669C486.524 292.879 486.456 293.402 486.431 293.84C486.322 296.013 486.229 298.271 487.079 300.275C488.315 303.207 491.519 305.667 490.846 308.775C487.23 307.099 485.346 303.03 484.497 299.13C483.639 295.23 483.505 291.136 481.974 287.446C480.805 288.937 478.366 287.707 477.307 286.141C476.298 284.658 475.675 282.939 474.7 281.432C473.724 279.932 472.227 278.584 470.444 278.5C468.569 278.416 466.938 279.705 465.508 280.926C464.264 281.846 463.22 283.01 462.439 284.346C461.438 286.368 461.698 288.743 461.648 290.993C461.598 293.419 461.085 295.988 459.428 297.774C457.771 299.551 454.718 300.174 452.894 298.565C452.011 297.644 451.382 296.509 451.069 295.272C449.085 289.48 447.434 283.58 446.124 277.599C445.821 278.964 444.619 280.724 443.475 279.924C443.219 279.706 443.013 279.436 442.869 279.132C440.733 275.518 436.789 273.345 432.795 272.039C428.808 270.742 424.612 270.135 420.668 268.703C418.456 267.899 416.343 266.845 414.369 265.561C413.868 266.301 413.575 267.163 413.522 268.055C413.468 268.948 413.657 269.838 414.066 270.632C414.51 271.41 415.197 272.019 416.021 272.364C416.845 272.71 417.76 272.773 418.624 272.545C419.499 272.258 420.239 271.652 421.105 271.349C421.971 271.054 423.14 271.197 423.519 272.039C423.889 272.839 423.334 273.808 423.611 274.651C424.023 275.923 425.949 276.024 426.622 277.186C426.82 277.646 426.865 278.158 426.752 278.646C426.638 279.134 426.372 279.573 425.991 279.899C425.217 280.531 424.363 281.057 423.451 281.465C420.626 283.041 418.616 285.728 416.144 287.817C413.671 289.914 410.181 291.439 407.238 290.1C407.936 286.536 403.706 283.925 402.924 280.379C402.663 279.208 402.797 277.97 402.436 276.832C401.906 275.181 400.443 274.053 399.249 272.806C397.798 271.275 396.667 269.47 395.923 267.495C395.18 265.52 394.838 263.416 394.918 261.307C394.985 259.842 395.254 258.351 394.918 256.919C394.59 255.495 393.404 254.114 391.941 254.173C388.602 254.324 384.389 254.577 382.64 251.721C382.009 250.702 381.74 249.211 382.648 248.428C383.003 248.202 383.399 248.05 383.813 247.979C384.228 247.908 384.652 247.92 385.062 248.015C387.576 248.259 390.082 248.512 392.597 248.756C394.354 248.925 396.255 249.068 397.769 248.15C399.282 247.232 399.938 244.78 398.534 243.694C397.516 242.902 395.683 242.944 395.38 241.689C395.136 240.636 396.297 239.448 395.666 238.564C395.22 237.94 394.211 238.109 393.597 238.58C393.062 239.138 392.479 239.648 391.857 240.105C390.654 240.728 389.224 240.13 387.929 239.726C386.634 239.322 384.902 239.288 384.279 240.493C383.573 241.832 384.893 243.601 384.204 244.949C383.279 246.726 380.167 245.715 378.872 247.248C377.392 249 379.881 251.629 379.385 253.869C378.746 254.187 378.036 254.333 377.324 254.293C376.612 254.253 375.923 254.029 375.323 253.642C374.735 253.241 374.266 252.688 373.967 252.041C373.668 251.394 373.549 250.678 373.624 249.969C373.742 248.958 374.272 247.922 373.919 246.97C373.538 246.235 372.909 245.659 372.144 245.345C369.706 243.988 367.267 242.638 364.828 241.293C364.147 242.556 365.005 244.115 366.081 245.067C367.149 246.01 368.495 246.726 369.201 247.973C369.648 248.837 369.749 249.839 369.484 250.775C369.218 251.712 368.606 252.511 367.771 253.01C367.666 253.083 367.546 253.132 367.419 253.154C367.293 253.175 367.164 253.17 367.04 253.136C366.923 253.068 366.821 252.977 366.741 252.868C366.66 252.76 366.601 252.636 366.569 252.505C365.282 249.194 363.339 245.934 360.245 244.207C357.142 242.472 352.693 242.834 350.658 245.74C350.178 246.431 349.85 247.223 349.43 247.956C347.201 251.839 342.408 253.676 337.934 253.558C337.496 253.586 337.06 253.483 336.681 253.263C335.958 252.766 335.991 251.704 336.101 250.828C336.26 249.59 336.412 248.36 336.572 247.122C336.576 246.366 336.867 245.64 337.387 245.092C338.22 244.435 339.414 244.848 340.474 244.831C341.273 244.795 342.043 244.513 342.676 244.023C343.31 243.533 343.777 242.859 344.014 242.093C344.227 241.32 344.226 240.504 344.009 239.732C343.793 238.96 343.37 238.261 342.786 237.713C342.307 237.258 341.659 236.685 341.912 236.07C342.014 235.901 342.152 235.756 342.317 235.645C342.481 235.535 342.667 235.461 342.862 235.43C344.754 234.882 346.764 234.739 348.623 234.082C350.49 233.433 352.298 232.103 352.743 230.174C352.878 229.584 352.937 228.868 353.467 228.573C353.734 228.465 354.019 228.408 354.308 228.405C355.319 228.259 356.239 227.741 356.888 226.951C357.537 226.16 357.867 225.156 357.814 224.134C358.706 223.51 359.959 223.974 360.825 224.639C361.683 225.305 362.448 226.181 363.499 226.467C365.459 227.006 367.351 225.263 369.386 225.254C370.244 225.254 371.127 225.557 371.926 225.263C372.741 224.968 373.229 224.159 373.852 223.561C374.482 222.954 375.575 222.592 376.156 223.241C375.988 222.019 375.828 220.806 375.66 219.593C376.65 219.843 377.683 219.878 378.688 219.695C379.693 219.512 380.648 219.115 381.488 218.532C379.368 217.816 377.257 217.1 375.138 216.384C374.916 216.329 374.71 216.219 374.541 216.064C374.079 215.567 374.541 214.792 374.911 214.228C375.811 212.871 375.962 210.639 374.482 209.965C373.473 209.502 372.321 210.058 371.354 210.597C369.807 211.456 368.259 212.324 366.712 213.183C366.569 214.067 367.645 214.573 368.31 215.163C368.714 215.522 369.001 215.996 369.132 216.522C369.262 217.048 369.231 217.602 369.042 218.11C368.852 218.617 368.514 219.056 368.071 219.367C367.628 219.679 367.102 219.849 366.56 219.855C366.865 220.253 367.077 220.715 367.18 221.206C367.284 221.697 367.276 222.205 367.158 222.693C366.123 222.769 365.08 222.845 364.038 222.921C363.864 222.955 363.686 222.955 363.513 222.921C363.34 222.886 363.175 222.817 363.028 222.719C362.692 222.424 362.742 221.901 362.658 221.463C362.52 220.94 362.228 220.47 361.82 220.114C361.412 219.758 360.908 219.533 360.371 219.467C359.3 219.346 358.215 219.447 357.184 219.762C356.735 219.92 356.245 219.908 355.805 219.728C355.555 219.563 355.366 219.32 355.266 219.037C355.083 218.46 355.052 217.845 355.176 217.251C355.3 216.658 355.574 216.107 355.973 215.651C356.78 214.753 357.67 213.932 358.63 213.2C360.806 211.292 362.405 208.811 363.247 206.04C364.963 205.315 366.737 204.338 368.461 203.614C369.847 202.97 371.299 202.482 372.792 202.156C374.197 201.941 375.62 201.874 377.039 201.954C378.973 201.988 380.916 202.022 382.85 202.064C384.576 201.991 386.302 202.24 387.938 202.797C389.527 203.454 390.932 204.877 391.041 206.596C391.074 206.791 391.057 206.993 390.99 207.18C390.924 207.367 390.811 207.534 390.662 207.665C390.439 207.789 390.186 207.847 389.931 207.834C388.325 207.884 387.643 208.289 386.037 208.348C387.055 209.434 388.198 210.58 389.678 210.774C392.285 211.111 394.161 208.407 395.363 206.057C395.406 206.655 395.681 207.212 396.129 207.611C396.577 208.009 397.162 208.216 397.76 208.188C398.404 208.077 399.019 207.836 399.568 207.48C404.741 204.649 410.535 203.149 416.429 203.117C416.372 202.67 416.482 202.217 416.738 201.847C416.994 201.476 417.379 201.214 417.817 201.112C419.02 200.876 420.096 201.912 420.676 202.99C421.248 204.069 421.61 205.315 422.535 206.124C423.452 206.933 425.226 206.89 425.588 205.728C425.941 204.608 424.772 203.647 423.805 202.982C422.829 202.325 421.812 201.103 422.468 200.126C427.412 199.023 432.399 197.928 437.47 197.709C438.332 197.735 439.19 197.586 439.993 197.271C440.391 197.102 440.722 196.807 440.934 196.43C441.147 196.054 441.23 195.618 441.171 195.19C440.064 195.449 438.906 195.372 437.843 194.97C436.78 194.568 435.86 193.859 435.2 192.932C440.405 192.503 445.855 192.124 450.858 193.295L455.24 197.018C454.407 197.886 453.297 198.703 453.903 199.57C454.103 199.77 454.345 199.921 454.611 200.013C454.878 200.105 455.162 200.135 455.442 200.101C456.501 200.118 457.561 200.143 458.612 200.143C480.364 220.984 493.753 249.077 496.254 279.123C494.488 279.056 492.865 281.297 493.092 283.251C493.361 285.517 494.992 287.337 496.161 289.291C496.355 289.609 496.529 289.938 496.682 290.277L496.523 295.836Z" fill="#FF9100"/>
<path d="M264.863 57.9528C270.754 57.9528 275.531 53.1686 275.531 47.2671C275.531 41.3655 270.754 36.5814 264.863 36.5814C258.971 36.5814 254.195 41.3655 254.195 47.2671C254.195 53.1686 258.971 57.9528 264.863 57.9528Z" stroke="#3F3D56" stroke-width="2" stroke-miterlimit="10"/>
<path d="M580.079 261.448C585.971 261.448 590.747 256.664 590.747 250.762C590.747 244.861 585.971 240.076 580.079 240.076C574.187 240.076 569.411 244.861 569.411 250.762C569.411 256.664 574.187 261.448 580.079 261.448Z" stroke="#3F3D56" stroke-width="2" stroke-miterlimit="10"/>
<path d="M507.252 154.993C513.143 154.993 517.919 150.209 517.919 144.307C517.919 138.406 513.143 133.622 507.252 133.622C501.36 133.622 496.584 138.406 496.584 144.307C496.584 150.209 501.36 154.993 507.252 154.993Z" stroke="#3F3D56" stroke-width="2" stroke-miterlimit="10"/>
<path d="M437.26 246.57C443.871 246.57 449.231 241.201 449.231 234.578C449.231 227.955 443.871 222.586 437.26 222.586C430.648 222.586 425.288 227.955 425.288 234.578C425.288 241.201 430.648 246.57 437.26 246.57Z" fill="#3F3D56"/>
<path d="M475.715 211.841C484.431 211.841 491.496 204.764 491.496 196.034C491.496 187.304 484.431 180.227 475.715 180.227C467 180.227 459.934 187.304 459.934 196.034C459.934 204.764 467 211.841 475.715 211.841Z" fill="white"/>
<path d="M491.675 179.647C487.439 175.508 481.736 173.224 475.819 173.297C469.902 173.371 464.257 175.795 460.125 180.038C451.521 188.873 439.236 233.491 439.236 233.491C439.236 233.491 483.461 220.084 492.066 211.25C496.198 207.007 498.478 201.294 498.405 195.367C498.331 189.44 495.911 183.786 491.675 179.647ZM468.496 203.447C467.032 202.017 466.024 200.184 465.601 198.18C465.177 196.176 465.356 194.091 466.115 192.19C466.874 190.288 468.179 188.654 469.865 187.495C471.551 186.336 473.543 185.704 475.587 185.678C477.632 185.653 479.638 186.235 481.353 187.352C483.067 188.469 484.412 190.07 485.218 191.953C486.024 193.835 486.254 195.915 485.88 197.929C485.506 199.942 484.544 201.8 483.116 203.266C481.201 205.232 478.585 206.356 475.843 206.39C473.101 206.424 470.458 205.365 468.496 203.447Z" fill="#4EB4F9"/>
</svg>
