<svg width="606" height="450" viewBox="0 0 606 450" fill="none" xmlns="http://www.w3.org/2000/svg">
<g clip-path="url(#clip0)">
<path d="M159.525 128.319C159.332 126.798 158.943 125.309 158.367 123.888C158.293 123.62 158.165 123.369 157.989 123.153C157.814 122.937 157.595 122.76 157.347 122.633C157.016 122.547 156.668 122.543 156.335 122.621L151.14 123.416C150.705 123.436 150.289 123.598 149.954 123.877C149.278 124.588 149.944 125.734 149.923 126.715C149.9 127.819 148.919 128.715 147.856 129.011C146.77 129.23 145.65 129.216 144.57 128.97L137.305 127.842C139.445 127.159 141.349 125.888 142.801 124.175C143.757 123.043 144.265 120.929 142.884 120.393C142.473 120.28 142.045 120.246 141.622 120.292C138.331 120.317 135.741 117.57 132.659 116.413C130.687 115.72 128.546 115.669 126.543 116.266C124.54 116.863 122.777 118.078 121.506 119.737L125.376 119.923C125.74 119.903 126.101 120 126.407 120.198C127.255 120.895 126.201 122.233 126.32 123.324C126.475 124.741 128.358 125.044 129.777 125.187C131.196 125.33 132.996 126.483 132.313 127.734C125.182 130.19 117.924 122.934 110.435 123.827C108.539 124.053 106.749 124.798 104.898 125.266C93.5929 128.126 81.905 120.496 70.3558 122.112C67.7882 122.549 65.2648 123.215 62.8154 124.1C61.2435 124.616 59.6039 125.173 58.4618 126.37C57.3197 127.566 56.8851 129.613 57.967 130.864C54.9848 131.11 51.9827 130.824 49.1002 130.021C49.8797 130.455 50.5282 131.09 50.9775 131.86C51.4269 132.63 51.6606 133.507 51.6541 134.398C46.9978 135.157 42.4647 136.539 38.1769 138.506C38.9772 139.837 39.9119 141.082 40.9664 142.221L35.0716 146.007C37.0631 146.509 38.0928 149.224 36.9346 150.919C38.9996 150.001 40.2794 147.625 42.4876 147.143C43.9343 146.828 45.4063 147.419 46.7787 147.975C48.151 148.531 49.6594 149.07 51.0801 148.653C52.5008 148.236 53.5487 146.394 52.6459 145.221C58.7184 143.449 64.9941 142.469 71.3176 142.304C71.8054 142.243 72.3002 142.337 72.7317 142.573C73.5548 143.144 73.3382 144.377 73.2939 145.377C73.2496 146.378 74.0296 147.693 74.9242 147.242C73.8717 148.154 74.7714 149.872 75.7811 150.831C76.7908 151.79 78.0078 153.114 77.3897 154.362C77.2283 154.688 76.9547 154.949 76.7994 155.277C76.3412 156.247 77.0688 157.378 77.9269 158.023C78.785 158.667 79.8361 159.117 80.4322 160.009C81.0283 160.901 80.7576 162.463 79.6917 162.587L76.662 158.742C75.6269 159.815 74.9173 161.159 74.6154 162.619C77.8281 165.245 78.3114 170.589 75.6217 173.748C74.2472 175.362 72.2926 176.343 70.5867 177.602C68.8807 178.861 67.3022 180.654 67.3065 182.774C67.3139 186.436 67.0145 189.839 68.3874 193.235C70.9188 199.496 73.8415 205.591 77.1381 211.486C78.0038 213.034 79.1227 214.73 80.8764 214.997C78.66 209.603 76.6648 204.125 74.8909 198.563C76.0463 198.568 77.3815 198.659 78.0589 199.595C78.6198 200.37 78.4993 201.424 78.6736 202.364C78.8952 203.275 79.2649 204.144 79.7677 204.936L90.3516 223.783C91.229 225.345 92.2354 227.022 93.9122 227.655C94.9843 228.06 96.2247 227.983 97.2115 228.566C97.9849 229.022 98.5059 229.833 99.2944 230.263C101.524 231.479 104.624 229.147 106.708 230.598C107.304 231.014 107.683 231.673 108.232 232.148C110.156 233.814 113.313 232.7 115.534 233.942C116.966 234.743 117.708 236.345 118.471 237.797C120.384 241.433 123.479 244.995 127.579 245.285C128.866 245.376 130.182 245.132 131.44 245.418C132.699 245.704 133.938 246.803 133.736 248.077C133.39 250.262 134.47 252.655 134.18 254.849C133.651 258.844 127.983 260.6 127.496 264.6C127.389 265.476 127.556 266.38 127.347 267.237C127.092 268.288 126.302 269.144 126.022 270.188C125.49 272.168 126.909 274.137 128.467 275.469C130.025 276.801 131.884 277.949 132.736 279.813C133.637 281.783 133.194 284.081 133.487 286.227C134.126 290.913 138.175 294.386 142.341 296.626C143.61 297.308 144.973 297.969 145.795 299.153C146.867 300.698 146.761 302.735 147.119 304.581C147.996 309.103 151.803 312.828 151.911 317.433C151.988 320.705 150.168 323.674 149.081 326.762C148.062 329.721 147.693 332.864 148 335.978C148.307 339.092 149.282 342.104 150.858 344.807C151.672 346.179 152.644 347.474 153.219 348.962C154.246 351.617 153.913 354.636 154.859 357.321C156.111 360.871 159.549 363.803 159.22 367.553C160.781 370.793 164.228 372.386 167.694 373.35L173.907 375.079C175.096 375.41 176.339 375.744 177.55 375.504C178.761 375.264 179.917 374.259 179.886 373.025C176.84 372.338 173.696 371.608 171.184 369.752C168.673 367.896 166.953 364.591 167.906 361.618C168.347 360.24 169.287 358.648 168.394 357.509C167.882 356.856 166.947 356.686 166.369 356.091C165.469 355.163 165.779 353.604 166.426 352.484C167.073 351.365 168.008 350.365 168.269 349.099C168.401 348.39 168.313 347.659 168.017 347.002C167.721 346.345 167.231 345.794 166.613 345.423C167.765 344.989 168.812 344.317 169.688 343.451C170.496 342.528 170.87 341.105 170.234 340.055C172.123 340.295 174.353 340.412 175.593 338.968C176.583 337.814 176.515 336.09 176.124 334.621C175.732 333.152 175.071 331.725 175.05 330.205C179.408 330.412 183.775 330.264 188.108 329.763C187.482 327.653 186.058 325.87 184.138 324.792C186.101 324.46 187.889 322.111 188.509 320.22C189.129 318.329 188.971 316.27 188.588 314.317C188.44 313.814 188.42 313.283 188.529 312.771C188.75 312.066 189.442 311.637 190.082 311.269L199.824 305.676C200.405 305.385 200.932 304.996 201.381 304.527C202.402 303.328 202.251 301.519 201.728 300.034C201.206 298.549 200.368 297.153 200.167 295.592C199.565 290.923 204.564 287.573 206.252 283.179C206.914 281.454 207.049 279.579 207.177 277.736C207.314 275.757 207.325 273.458 205.804 272.182C204.347 270.959 202.07 271.232 200.545 270.095C199.147 269.052 198.665 267.027 197.137 266.185C195.75 265.42 194.011 265.906 192.469 265.547C189.753 264.913 188.043 261.784 185.269 261.494C183.704 261.331 181.933 262.095 180.65 261.184C179.52 260.381 179.475 258.767 179.259 257.398C178.882 255.27 177.862 253.308 176.336 251.777C174.809 250.247 172.85 249.22 170.723 248.836C169.109 248.578 167.352 248.676 165.98 247.789C164.59 246.892 163.952 245.211 162.86 243.968C161.1 241.964 158.329 241.252 155.732 240.642L145.171 238.16C143.296 237.719 140.88 237.486 139.874 239.128C139.576 239.753 139.365 240.416 139.247 241.098C138.87 242.332 138.111 243.415 137.08 244.191C136.049 244.967 134.798 245.396 133.507 245.417C132.622 243.908 131.188 242.798 129.505 242.321C128.434 242.022 127.287 241.989 126.266 241.55C125.71 241.279 125.215 240.897 124.811 240.427C124.408 239.958 124.104 239.411 123.92 238.821C123.735 238.23 123.673 237.608 123.737 236.993C123.801 236.377 123.99 235.781 124.292 235.241C124.901 234.158 125.136 232.904 124.961 231.673C124.786 230.442 124.211 229.303 123.324 228.432C121.528 226.82 118.93 226.431 116.522 226.592C115.891 225.216 116.946 223.664 118.082 222.664C119.219 221.664 120.599 220.681 120.846 219.188C121.236 216.839 118.238 215.056 115.962 215.756C113.686 216.456 112.233 218.666 111.273 220.845C110.722 222.095 110.254 223.411 109.385 224.465C108.515 225.519 107.116 226.273 105.792 225.935C103.918 225.456 103.194 223.23 102.779 221.342C102.223 218.808 101.663 216.238 101.78 213.646C101.896 211.054 102.77 208.393 104.682 206.639C107.798 203.779 112.577 204.06 116.781 204.516C115.788 203.397 116.033 201.511 117.096 200.458C117.657 199.96 118.331 199.606 119.06 199.427C119.789 199.248 120.551 199.249 121.279 199.431C122.546 199.695 123.687 200.377 124.519 201.368C125.714 202.824 126.054 204.79 126.957 206.443C127.86 208.096 129.89 209.506 131.552 208.619C132.988 207.853 133.216 205.863 132.859 204.276C132.501 202.689 131.742 201.146 131.872 199.524C132.119 196.43 135.327 194.567 138.159 193.293C140.99 192.018 144.232 190.305 144.681 187.233C144.696 186.632 144.809 186.037 145.017 185.472C145.331 184.973 145.767 184.563 146.284 184.28C154.548 178.821 162.948 173.295 172.393 170.312C172.884 170.157 172.942 170.329 173.443 170.208C174.143 169.803 173.679 168.683 173.007 168.231C172.335 167.78 171.437 167.434 171.267 166.643C171.141 166.061 171.484 165.49 171.573 164.902C171.792 163.457 170.062 162.122 168.719 162.7C167.961 161.696 169.462 160.529 170.676 160.195C174.32 159.192 178.062 158.581 181.837 158.372C182.272 158.303 182.718 158.379 183.107 158.588C183.741 159.027 183.66 160.034 183.21 160.661C182.761 161.287 182.062 161.681 181.502 162.211C180.891 162.807 180.454 163.559 180.241 164.386C180.028 165.212 180.046 166.082 180.293 166.899C182.263 167.901 184.406 168.933 186.588 168.58C188.771 168.227 190.708 165.775 189.682 163.817C188.727 161.994 185.857 161.583 185.364 159.585C184.786 157.245 188.099 155.164 187.352 152.873C187.026 151.869 186.025 151.278 185.257 150.554C184.35 149.665 183.734 148.524 183.488 147.278C183.242 146.033 183.379 144.743 183.88 143.576C182.629 143.796 181.344 143.713 180.132 143.334C178.92 142.955 177.817 142.291 176.915 141.397C175.249 139.717 173.92 137.065 171.555 137.141C169.384 137.21 167.514 139.742 165.484 138.969C164.985 138.779 164.458 138.392 163.974 138.619C163.816 138.722 163.683 138.859 163.585 139.021C163.488 139.183 163.428 139.365 163.411 139.553C162.895 142.019 163.783 144.828 162.439 146.958C160.976 149.277 157.593 149.598 155.819 151.689C154.857 152.824 154.484 154.353 153.599 155.549C152.714 156.746 150.837 157.506 149.775 156.464C150.297 155.391 150.439 154.174 150.179 153.01C149.919 151.846 149.272 150.805 148.343 150.056C147.357 149.413 146.294 148.896 145.18 148.518C143.934 147.991 142.75 147.331 141.646 146.549C141.094 146.216 140.644 145.735 140.349 145.162C140.115 144.443 140.147 143.665 140.438 142.967C140.976 141.424 141.926 140.057 143.185 139.014C144.443 137.971 145.963 137.292 147.58 137.049C148.994 136.857 150.639 136.925 151.575 135.848C152.07 135.278 152.329 134.417 153.048 134.185C153.508 134.093 153.985 134.152 154.408 134.353L159.685 136.21C160.274 136.475 160.922 136.582 161.565 136.52C161.884 136.477 162.174 136.316 162.379 136.067C162.583 135.819 162.686 135.503 162.667 135.181C162.498 134.305 161.15 133.885 161.272 133.001C161.341 132.715 161.495 132.456 161.714 132.259C163.618 130.233 165.947 128.653 168.534 127.632C171.121 126.61 173.901 126.174 176.677 126.352C177.343 127.446 176.289 128.741 175.413 129.674C174.536 130.608 173.832 132.276 174.892 132.994C175.326 133.216 175.81 133.325 176.297 133.311C177.596 133.486 178.859 133.869 180.037 134.445C181.86 135.238 183.649 136.106 185.402 137.049C185.247 135.893 185.099 134.675 185.537 133.594C185.976 132.514 187.221 131.666 188.309 132.087C189.357 132.493 189.895 133.88 191.012 134.008C192.502 134.177 193.09 131.977 192.467 130.613C191.845 129.249 190.613 128.107 190.51 126.611C190.441 125.602 190.825 124.351 190.019 123.74C189.732 123.557 189.406 123.442 189.067 123.407L168.938 119.704C167.742 119.484 166.015 119.652 165.962 120.866C165.933 121.544 166.538 122.214 166.27 122.837C165.984 123.502 165.043 123.441 164.359 123.676C163.296 124.041 162.763 125.303 162.865 126.421C163.052 127.532 163.482 128.589 164.126 129.514C162.816 128.967 160.834 128.866 159.525 128.319Z" fill="#3F3D56"/>
<path d="M143.463 111.236C142.194 110.816 140.826 110.797 139.545 111.18C138.264 111.564 137.132 112.332 136.303 113.38C135.971 113.816 135.693 114.418 135.97 114.89C136.368 115.567 137.382 115.3 138.129 115.058C139.228 114.665 140.423 114.637 141.539 114.976C142.241 115.217 142.869 115.643 143.573 115.875C143.917 116.018 144.292 116.065 144.66 116.012C145.028 115.958 145.375 115.805 145.662 115.569C146.146 115.076 146.176 114.309 146.177 113.619C146.211 113.388 146.192 113.152 146.123 112.929C146.054 112.706 145.936 112.501 145.777 112.329C145.495 112.166 145.178 112.072 144.853 112.056C144.123 111.921 143.464 111.536 142.988 110.967" fill="#3F3D56"/>
<path d="M150.721 109.216C150.437 109.2 150.154 109.258 149.899 109.384C149.644 109.509 149.425 109.699 149.264 109.933C149.103 110.168 149.005 110.44 148.98 110.723C148.954 111.006 149.002 111.291 149.119 111.551C149.991 111.788 150.902 111.848 151.798 111.725C152.245 111.656 152.662 111.456 152.995 111.15C153.328 110.845 153.564 110.447 153.671 110.008C152.617 110.2 151.528 109.993 150.618 109.426" fill="#3F3D56"/>
<path d="M175.074 105.842C172.7 106.346 170.393 107.13 168.202 108.175C169.235 108.572 170.113 109.29 170.707 110.224C171.3 111.157 171.578 112.256 171.5 113.359C171.407 113.783 171.418 114.223 171.531 114.641C171.784 115.253 172.515 115.482 173.158 115.639C174.313 115.991 175.519 116.145 176.726 116.095C177.329 116.063 177.915 115.882 178.431 115.567C178.946 115.252 179.375 114.813 179.679 114.291C179.853 113.795 180.059 113.31 180.293 112.839C181.834 110.493 186.412 113.33 188.067 111.062C188.65 110.263 188.596 109.061 189.356 108.428C189.749 108.152 190.205 107.978 190.682 107.922C194.009 107.261 197.37 106.783 200.75 106.489C202.351 106.349 204.438 105.774 204.452 104.168C198.42 102.983 192.166 103.824 186.662 106.56C184.678 107.553 182.056 109.642 180.145 108.325C179.43 107.833 179.466 106.505 178.481 105.951C177.475 105.384 176.142 105.615 175.074 105.842Z" fill="#3F3D56"/>
<path d="M194.8 109.529L197.631 110.073C197.11 110.05 196.59 110.139 196.105 110.332C195.621 110.526 195.184 110.821 194.822 111.197C194.461 111.573 194.184 112.022 194.01 112.514C193.836 113.006 193.769 113.529 193.813 114.048C196.464 114.934 199.355 114.072 202.148 114.19C204.941 114.308 208.191 116.302 207.714 119.056C207.57 119.888 207.089 120.72 207.339 121.528C207.514 122.093 208.013 122.495 208.295 123.016C208.882 124.102 208.413 125.475 207.672 126.462C206.931 127.449 205.934 128.236 205.284 129.285C203.665 131.894 204.585 135.266 205.549 138.181C205.827 139.282 206.342 140.31 207.057 141.192C208.485 142.71 210.813 142.842 212.897 142.873C214.414 142.895 216.152 142.82 217.111 141.645C218.364 140.111 217.488 137.717 218.312 135.917C219.061 134.282 220.969 133.58 222.698 133.083C225.865 132.171 229.093 131.396 232.087 130.02C235.805 128.31 239.279 125.646 243.366 125.426C244.512 125.364 245.687 125.499 246.791 125.185C247.896 124.871 248.945 123.917 248.861 122.772C248.79 121.794 247.962 121.076 247.315 120.339C246.668 119.601 246.16 118.467 246.755 117.687L257.466 115.687C256.707 113.619 256.115 110.894 257.86 109.548C258.489 109.062 259.332 108.868 259.868 108.281C260.782 107.28 260.322 105.555 259.268 104.704C258.213 103.853 256.788 103.655 255.437 103.543C250.74 103.153 246.017 103.411 241.311 103.669C232.113 104.173 222.914 104.677 213.715 105.181C211.864 105.282 209.726 105.127 208.027 105.759C206.59 106.294 205.567 107.275 203.923 107.62C200.887 108.256 197.547 107.826 194.8 109.529Z" fill="#3F3D56"/>
<path d="M245.523 131.903C245.235 131.857 244.94 131.924 244.699 132.09C244.54 132.265 244.445 132.489 244.431 132.725C244.248 133.767 244.466 134.84 245.04 135.728C245.333 136.164 245.737 136.513 246.211 136.74C246.684 136.967 247.21 137.063 247.733 137.019C249.008 136.856 249.947 135.769 251.12 135.238C252.926 134.421 260.598 133.147 255.291 130.281C253.462 129.293 252.28 130.165 250.839 130.816C249.199 131.655 247.361 132.031 245.523 131.903Z" fill="#3F3D56"/>
<path d="M292.006 107.911C291.386 108.164 290.867 108.616 290.531 109.194C290.376 109.488 290.34 109.83 290.431 110.15C290.521 110.469 290.731 110.742 291.017 110.911C291.248 110.995 291.494 111.034 291.74 111.026L294.259 111.101C295.33 111.133 296.667 111.361 296.954 112.392C297.168 113.158 296.69 114.142 297.267 114.689C297.514 114.881 297.812 114.997 298.124 115.023C298.954 115.237 299.821 115.265 300.663 115.105C302.496 114.614 301.533 113.495 302.11 112.499C302.994 110.975 302.841 111.898 304.397 111.024C305.547 110.379 307.033 109.209 306.073 107.565C304.404 104.706 294.468 106.683 292.006 107.911Z" fill="#3F3D56"/>
<path d="M341.737 106.474L340.274 106.669C336.975 107.109 333.657 107.554 330.479 108.544C331.855 109.088 333.298 109.442 334.769 109.596C335.579 109.636 336.383 109.75 337.172 109.938C338.575 110.355 339.99 111.434 341.346 110.882C342.186 110.539 342.461 109.664 343.157 109.2C343.638 108.88 345.462 108.361 345.666 108.038C347.314 105.425 343.004 106.305 341.737 106.474Z" fill="#3F3D56"/>
<path d="M348.162 113.122C346.208 114.214 344.394 115.542 342.763 117.075C342.075 117.721 341.373 118.524 341.435 119.465C341.518 120.716 342.851 121.442 344.006 121.93L348.683 123.91C349.25 123.111 348.731 122.007 348.145 121.221C347.558 120.436 346.861 119.527 347.121 118.581C347.416 117.502 348.732 117.135 349.836 116.949C351.633 116.646 356.483 116.67 355.901 113.774C355.214 110.36 349.967 112.113 348.162 113.122Z" fill="#3F3D56"/>
<path d="M347.221 306.27C346.776 307.558 346.734 309.077 347.504 310.202C348.368 311.464 350.098 311.935 351.594 311.615C353.085 311.218 354.413 310.365 355.392 309.174C356.288 308.176 357.024 307.047 357.576 305.825C358.347 303.921 358.89 301.933 359.196 299.903L360.648 292.28C360.972 290.577 360.96 285.354 357.828 287.055C356.972 287.52 354.991 291.191 354.094 292.231C352.478 294.107 352.265 295.927 351.414 298.2C350.348 301.046 348.206 303.419 347.221 306.27Z" fill="#3F3D56"/>
<path d="M512.643 345.276C511.618 344.876 510.624 344.403 509.667 343.86C508.708 346.496 508.198 349.275 508.158 352.08L515.171 348.113C516.226 347.516 517.422 346.687 517.399 345.475C517.408 345.326 517.377 345.176 517.309 345.043C517.241 344.909 517.138 344.797 517.011 344.717C516.855 344.654 516.686 344.634 516.52 344.659C515.48 344.746 514.532 345.257 513.551 345.613C512.57 345.969 511.423 346.157 510.523 345.629" fill="#3F3D56"/>
<path d="M549.637 347.631C548.867 347.841 548.115 348.111 547.388 348.438C545.779 349.257 544.684 350.812 543.236 351.89C541.85 352.921 540.182 353.488 538.544 354.039C538.062 354.464 538.283 355.322 538.806 355.696C539.369 356.016 540.013 356.16 540.659 356.112C542.36 356.149 544.152 356.166 545.643 355.344C546.482 354.8 547.268 354.176 547.989 353.482C549.732 352.029 551.824 351.07 553.896 350.143C554.649 349.859 555.347 349.442 555.954 348.913C557.256 347.631 557.347 345.653 555.47 345.217C553.954 344.864 551.081 347.164 549.637 347.631Z" fill="#3F3D56"/>
<path d="M565.982 336.958C566.066 336.075 565.949 335.186 565.639 334.356C565.329 333.525 564.834 332.777 564.192 332.166C564.173 333.931 564.12 335.811 563.127 337.27C562.419 338.31 561.31 339.012 560.535 340.003C559.76 340.993 559.416 342.563 560.325 343.432C560.906 343.874 561.614 344.118 562.344 344.128C564.154 344.341 566.248 344.459 567.518 343.152C568.211 342.439 568.548 341.382 569.392 340.858C569.707 340.726 569.988 340.524 570.215 340.269C570.564 339.715 570.009 338.984 569.385 338.784C568.761 338.585 568.074 338.678 567.447 338.489C566.82 338.299 566.244 337.594 566.566 337.023" fill="#3F3D56"/>
<path d="M536.931 272.251C535.982 272.482 534.999 272.54 534.029 272.422C532.418 272.126 531.164 270.912 529.863 269.917C526.771 267.563 523.012 266.25 519.127 266.167C515.592 266.1 512.025 267.057 508.553 266.389C508.78 267.651 509.859 268.596 511.011 269.159C512.163 269.721 513.434 270.004 514.591 270.554C516.445 271.445 517.915 272.974 518.732 274.861C519.105 275.73 519.339 276.677 519.904 277.436C521.058 278.989 523.245 279.33 525.175 279.203C527.692 279.037 530.321 278.313 532.663 279.251C534.454 279.968 535.736 281.535 537.231 282.754C538.727 283.973 540.834 284.877 542.551 283.998C540.767 283.421 539.215 282.288 538.12 280.766C537.025 279.245 536.446 277.413 536.466 275.538C538.151 275.693 543.002 275.633 542.741 272.772C542.519 270.347 538.378 271.989 536.931 272.251Z" fill="#3F3D56"/>
<path d="M514.896 291.98C515.195 290.34 516.831 288.892 516.322 287.305C515.969 286.208 514.696 285.666 513.543 285.639C512.391 285.611 511.258 285.955 510.106 285.987C509.355 285.947 508.603 285.958 507.854 286.019C505.566 286.395 504.156 288.793 502 289.645C500.689 290.163 499.216 290.064 497.852 290.423C494.757 291.236 492.798 294.16 490.635 296.518C487.138 300.31 482.584 302.965 477.561 304.14C475.801 304.547 473.909 304.808 472.51 305.95C470.657 307.464 470.201 310.058 469.789 312.414C468.651 318.92 466.91 325.306 464.591 331.491L471.941 332.429C473.338 332.607 474.786 332.782 476.133 332.368C477.111 331.999 478.038 331.505 478.89 330.9C482.163 328.868 485.827 327.546 489.644 327.019C491.568 326.755 493.586 326.707 495.392 327.422C497.199 328.137 498.748 329.759 498.9 331.695C499.681 331.452 500.513 331.426 501.308 331.619C502.103 331.812 502.83 332.218 503.412 332.792C504.563 333.965 505.317 335.469 505.567 337.092C505.761 338.097 505.954 339.302 506.887 339.724C507.649 340.068 508.522 339.697 509.355 339.63C512.18 339.404 514.525 342.698 517.303 342.131C520.281 341.523 521.013 337.063 523.919 336.17C525.588 335.657 527.929 336.28 528.728 334.728C529.432 333.36 528.027 331.782 528.172 330.25C528.35 328.364 530.576 327.563 532.291 326.759C538.206 323.984 541.013 316.026 538.147 310.156C536.449 306.679 533.107 303.941 532.49 300.121C532.015 297.181 533.174 293.754 531.3 291.44C530.346 290.263 528.732 289.613 528.164 288.209C527.807 287.325 527.95 286.322 527.758 285.388C527.566 284.454 526.751 283.478 525.829 283.72C523.151 284.422 522.297 292.691 520.863 294.701C518.684 297.755 514.21 295.743 514.896 291.98Z" fill="#3F3D56"/>
<path d="M465.404 275.376C464.489 275.119 463.49 274.866 462.613 275.233C461.736 275.599 461.224 276.886 461.928 277.525C467.433 277.31 472.971 277.098 478.43 277.845C484.718 278.706 490.942 280.839 497.258 280.211C493.65 279.147 489.983 278.297 486.275 277.663L480.091 276.483C478.432 276.135 476.756 275.876 475.07 275.707C471.542 275.416 468.872 276.348 465.404 275.376Z" fill="#3F3D56"/>
<path d="M470.915 256.208C470.458 256.17 469.892 256.137 469.655 256.53C469.43 256.906 469.688 257.401 469.567 257.822C469.401 258.397 468.648 258.544 468.054 258.466C467.461 258.388 466.819 258.2 466.293 258.486C466.026 258.668 465.826 258.932 465.722 259.237C465.618 259.543 465.616 259.874 465.716 260.181C465.931 260.79 466.279 261.344 466.734 261.803C467.511 262.783 468.397 263.671 469.375 264.451C471.267 265.848 473.83 266.52 475.022 268.547C475.19 268.94 475.448 269.288 475.776 269.562C476.348 269.924 477.094 269.649 477.71 269.367L479.869 268.381C480.258 268.241 480.605 268.005 480.878 267.695C481.372 267.026 481.069 266.074 480.655 265.354C480.241 264.633 479.711 263.887 479.8 263.06C479.958 261.587 481.853 261.023 482.632 259.763C483.418 258.492 482.906 256.855 482.997 255.363C483.103 253.62 484.199 251.351 482.435 250.049C480.937 248.941 479.504 249.964 478.428 251.187C476.159 253.765 475.086 256.557 470.915 256.208Z" fill="#3F3D56"/>
<path d="M484.02 230.154C484.758 231.565 486.294 232.407 487.098 233.781C487.969 235.27 487.87 237.194 488.815 238.638C489.785 240.119 491.736 240.905 492.28 242.59C492.874 244.429 491.527 246.664 492.601 248.271C492.801 248.534 493.054 248.752 493.343 248.912C493.632 249.072 493.951 249.17 494.28 249.2C494.609 249.231 494.94 249.192 495.254 249.088C495.567 248.983 495.855 248.814 496.1 248.593C496.553 248.1 496.795 247.45 496.775 246.781C496.756 246.112 496.475 245.478 495.994 245.012C495.358 244.433 494.445 244.182 493.915 243.506C493.638 243.115 493.454 242.667 493.376 242.194C493.087 240.833 493.133 239.421 493.511 238.081C493.653 237.741 493.689 237.366 493.615 237.005C493.376 236.311 492.435 236.261 491.775 235.939C490.275 235.207 490.312 233.092 490.574 231.445C490.399 232.541 486.492 230.676 486.082 230.055C485.27 228.821 485.712 226.44 485.551 225.077C483.796 225.922 483.119 228.429 484.02 230.154Z" fill="#3F3D56"/>
<path d="M444.652 251.862C443.931 251.055 442.845 250.211 441.878 250.697C441.14 251.069 440.937 252.089 441.226 252.863C441.578 253.614 442.121 254.26 442.8 254.738C444.815 256.399 446.985 257.899 448.743 259.83C451.889 263.286 453.555 267.95 456.977 271.134C457.664 271.872 458.575 272.365 459.569 272.537C460.566 272.63 461.686 271.992 461.8 270.998C461.895 270.179 461.323 269.446 460.765 268.839C459.436 267.393 457.981 266.063 456.726 264.553C456.147 263.973 455.783 263.212 455.694 262.397C455.688 261.584 456.429 260.733 457.217 260.935C456.259 260.69 455.548 259.094 454.142 258.793C452.966 258.543 452.682 259.27 451.283 258.67C448.614 257.526 446.521 253.953 444.652 251.862Z" fill="#3F3D56"/>
<path d="M507.349 173.267C506.584 173.039 505.831 172.77 505.095 172.461C503.114 171.867 500.493 173.323 500.757 175.374C500.932 176.736 502.201 177.655 502.901 178.837C503.94 180.59 503.663 182.813 503.117 184.776C502.983 185.384 502.728 185.959 502.368 186.466C501.864 187.002 501.261 187.435 500.592 187.743C497.917 189.243 495.558 191.246 493.645 193.644C493.437 193.865 493.292 194.138 493.225 194.434C493.131 195.127 493.827 195.631 494.22 196.209C495.095 197.492 494.463 199.218 494.549 200.768C494.536 200.987 494.579 201.206 494.674 201.404C494.769 201.602 494.913 201.772 495.093 201.899C495.62 202.167 496.244 201.712 496.53 201.195C497.478 199.478 496.764 196.722 498.542 195.894C498.879 195.737 499.286 195.671 499.511 195.376C499.867 194.907 499.523 194.213 499.704 193.653C499.975 192.812 501.125 192.774 502.008 192.812C503.53 192.875 505.05 192.673 506.502 192.214C507.071 192.078 507.588 191.779 507.989 191.352C508.521 190.689 508.474 189.746 508.367 188.903C507.835 184.699 506.503 180.635 504.443 176.932C506.005 177.131 507.705 177.304 509.053 176.49C509.808 176.034 510.713 174.672 510.339 173.744C509.746 172.277 508.677 173.512 507.349 173.267Z" fill="#3F3D56"/>
<path d="M307.076 196.388C307.263 197.391 307.447 198.446 307.118 199.411C306.79 200.377 305.756 201.183 304.78 200.888C304.022 200.658 303.585 199.896 303.047 199.316C300.056 196.087 293.306 197.957 291.458 193.962C290.704 192.332 291.217 190.379 290.702 188.659C290.378 187.664 289.732 186.805 288.866 186.218C288.001 185.63 286.965 185.346 285.92 185.411C284.967 185.548 284.04 185.825 283.168 186.232C277.325 188.571 271.191 190.105 264.935 190.791C263.746 190.863 262.57 191.077 261.432 191.428C258.863 192.359 257.107 194.74 255.858 197.17C254.609 199.599 253.687 202.23 252.012 204.388C250.252 206.657 247.786 208.245 245.485 209.963C244.599 210.534 243.861 211.308 243.332 212.22C242.833 213.243 242.861 214.434 242.9 215.572L243.37 229.393C243.431 231.171 243.507 233.012 244.303 234.603C245.296 236.59 247.26 237.891 248.622 239.646C250.012 241.45 250.736 243.678 250.672 245.954C250.643 246.869 250.552 247.951 251.264 248.526C251.698 248.807 252.205 248.953 252.722 248.945L271.424 250.475C274.714 250.744 278.36 251.187 280.508 253.692C281.521 254.875 282.336 256.576 283.888 256.702C284.554 256.757 285.202 256.484 285.868 256.431C287.549 256.298 289.025 257.573 289.957 258.978C291.367 261.118 292.008 263.675 291.773 266.227C291.62 267.83 291.123 269.387 291.016 270.993C290.608 277.104 295.79 282.413 295.89 288.536C295.949 292.138 294.239 295.503 292.571 298.696C295.263 302.772 293.059 308.2 294.13 312.964C295.147 317.485 298.917 321.024 299.857 325.561C300.287 327.638 300.312 330.194 302.144 331.264C302.948 331.656 303.839 331.834 304.732 331.782C310.117 331.846 315.441 330.634 320.268 328.246C322.533 327.122 324.881 325.444 325.277 322.947C325.596 320.933 324.574 318.681 325.614 316.927C326.839 314.859 329.978 315.023 331.781 313.434C334.706 310.855 332.425 305.937 333.61 302.223C334.675 298.884 338.342 297.111 340.159 294.114C340.875 292.826 341.388 291.435 341.681 289.991C342.514 286.539 343.032 283.019 343.23 279.473C343.278 277.319 343.437 275.169 343.706 273.031C345.666 260.861 357.701 252.711 361.609 241.019C361.982 239.902 362.157 238.415 361.164 237.783C360.574 237.502 359.906 237.432 359.271 237.585L350.65 238.672C349.579 238.807 348.444 238.933 347.461 238.488C346.477 238.043 345.773 236.8 346.294 235.855C347.759 233.204 344.747 229.853 343.408 227.136C339.805 219.819 335.513 212.861 330.592 206.357C330.277 206.022 330.08 205.594 330.03 205.137L332.477 205.218C331.651 202.256 330.288 199.013 327.408 197.929C325.786 197.319 323.989 197.53 322.258 197.624C317.3 197.895 311.984 197.147 307.076 196.388Z" fill="#3F3D56"/>
<path d="M322.262 129.62C323.559 130.997 325.013 132.458 326.891 132.698C330.207 133.122 332.591 129.694 334.109 126.717C334.165 127.476 334.515 128.183 335.085 128.688C335.654 129.193 336.399 129.456 337.159 129.42C337.978 129.283 338.759 128.978 339.454 128.524C346.023 124.935 353.382 123.033 360.869 122.989C360.797 122.422 360.937 121.849 361.263 121.38C361.59 120.91 362.078 120.578 362.635 120.448C364.157 120.146 365.528 121.462 366.262 122.828C366.996 124.195 367.454 125.779 368.621 126.802C369.788 127.825 372.046 127.78 372.507 126.299C372.949 124.877 371.467 123.664 370.236 122.826C369.005 121.987 367.707 120.435 368.536 119.198C374.827 117.806 381.156 116.409 387.593 116.132C388.688 116.17 389.78 115.982 390.8 115.58C391.782 115.098 392.562 114.005 392.298 112.944C390.894 113.274 389.422 113.179 388.072 112.67C386.722 112.161 385.554 111.261 384.718 110.086C393.649 109.349 403.148 108.721 411.064 112.922C412.014 114.961 407.173 116.657 408.468 118.495C408.881 119.082 409.709 119.15 410.426 119.164C415.926 119.266 421.458 119.366 426.897 118.536C428.884 118.232 430.891 117.804 432.887 118.05C436.21 118.46 439.053 120.677 442.322 121.399C443.653 121.694 445.145 121.704 446.267 120.93C447.389 120.156 447.871 118.394 446.952 117.388C450.03 114.372 455.139 115.119 459.201 116.563C463.262 118.007 467.109 120.336 471.408 120.658C474.49 120.889 477.615 120.06 480.661 120.587C482.575 120.918 484.356 121.769 486.227 122.292C489.765 123.281 493.508 123.072 497.181 123.12C506.554 123.246 515.824 125.088 524.533 128.553C525.666 128.922 526.704 129.535 527.573 130.349C528.384 131.217 528.797 132.565 528.252 133.62L519.253 132.305C520.101 133.974 522.295 134.258 524.076 134.834C525.857 135.409 527.704 137.376 526.634 138.911C524.704 138.297 522.955 140.226 521.98 142.001C521.005 143.776 519.817 145.902 517.794 146.01C515.983 146.107 513.792 144.565 512.611 145.942C514.242 147.999 515.639 150.231 516.776 152.598C517.942 155.027 518.773 158.088 517.196 160.274C516.948 160.664 516.572 160.955 516.132 161.098C514.845 161.424 514.008 159.85 513.085 158.895C511.921 157.693 510.162 157.352 508.586 156.788C507.01 156.224 505.35 155.114 505.227 153.446C505.15 152.407 505.699 151.442 506.103 150.483C506.781 148.866 507.078 147.114 506.97 145.363C506.882 143.955 506.487 142.49 505.475 141.506C504.463 140.522 502.716 140.209 501.63 141.111C501.124 141.531 500.717 142.204 500.059 142.229C498.896 142.274 498.003 140.247 497.068 140.939C497.178 141.676 497.025 142.428 496.636 143.064C493.844 145.491 489.555 144.464 485.956 145.322C484.244 145.812 482.606 146.527 481.083 147.449C480.514 147.693 480.029 148.099 479.691 148.618C479.241 149.491 479.737 150.609 480.529 151.189C481.368 151.704 482.312 152.026 483.292 152.132C487.679 152.963 492.131 154.249 495.596 157.066C499.06 159.884 501.332 164.541 500.235 168.869L491.582 160.603C491.911 164.074 492.097 167.554 492.142 171.044C492.198 171.725 492.104 172.411 491.867 173.052C491.251 174.414 489.579 174.873 488.114 175.173C487.706 175.251 487.32 175.413 486.979 175.651C486.639 175.888 486.353 176.195 486.14 176.55C485.927 176.906 485.791 177.303 485.742 177.715C485.693 178.126 485.732 178.544 485.856 178.94C486.377 180.636 487.675 181.958 488.863 183.276C490.052 184.594 491.221 186.091 491.377 187.859C491.532 189.626 490.198 191.618 488.428 191.495C487.086 191.402 486.09 190.201 485.517 188.984C484.945 187.767 484.604 186.411 483.744 185.377C481.141 182.246 475.293 183.587 472.961 180.25C472.366 180.925 471.954 181.739 471.763 182.618C471.572 183.496 471.609 184.408 471.87 185.268C472.955 184.589 474.44 185.22 475.255 186.207C476.071 187.194 476.455 188.459 477.095 189.567C477.959 191.062 479.334 192.388 479.455 194.111C479.423 194.762 479.434 195.415 479.488 196.065C479.702 197.108 480.584 197.858 481.196 198.73C482.62 200.76 482.55 203.549 481.632 205.853C480.714 208.156 479.066 210.081 477.433 211.947C474.581 215.206 471.67 218.446 468.289 221.153C467.324 221.925 466.294 222.684 465.693 223.764C465.093 224.844 465.062 226.359 465.985 227.181C465.324 227.214 464.139 227.539 463.479 227.572C463.246 224.922 463.196 222.26 463.328 219.603C460.72 218.351 457.913 221.703 458.249 224.575C458.586 227.447 460.663 229.752 462.143 232.237C463.225 234.054 464.029 236.172 463.667 238.256C463.306 240.339 461.446 242.261 459.339 242.078C455.987 241.785 454.585 236.975 451.266 236.425C450.973 236.356 450.666 236.386 450.393 236.511C449.9 236.782 449.814 237.441 449.787 238.002C449.651 240.756 449.533 243.62 450.609 246.159C452.182 249.874 456.246 252.994 455.394 256.937C450.801 254.803 448.413 249.653 447.329 244.707C446.244 239.761 446.064 234.569 444.12 229.893C442.644 231.784 439.542 230.22 438.194 228.237C436.915 226.356 436.128 224.18 434.888 222.274C433.647 220.368 431.747 218.661 429.475 218.556C427.093 218.446 425.027 220.081 423.21 221.625C421.716 222.895 420.182 224.214 419.308 225.97C418.037 228.524 418.37 231.535 418.309 234.387C418.242 237.471 417.589 240.724 415.487 242.981C413.384 245.239 409.504 246.025 407.186 243.991C405.975 242.929 405.389 241.342 404.867 239.818C402.35 232.476 400.254 224.996 398.589 217.415C398.2 219.145 396.68 221.376 395.228 220.356C394.902 220.082 394.638 219.742 394.454 219.359C391.746 214.77 386.73 212.018 381.663 210.367C376.595 208.717 371.264 207.947 366.253 206.134C363.444 205.117 360.762 203.781 358.258 202.153C357.62 203.09 357.248 204.183 357.18 205.315C357.112 206.446 357.352 207.575 357.874 208.582C358.986 210.55 361.501 211.688 363.655 211C364.767 210.645 365.707 209.873 366.811 209.491C367.915 209.11 369.397 209.297 369.88 210.361C370.342 211.379 369.643 212.61 369.99 213.673C370.518 215.291 372.96 215.416 373.814 216.889C374.449 217.985 373.926 219.44 373.019 220.325C372.112 221.209 370.902 221.694 369.794 222.309C366.201 224.307 363.646 227.717 360.506 230.369C357.366 233.022 352.936 234.959 349.193 233.257C350.085 228.742 344.705 225.426 343.715 220.931C343.389 219.452 343.558 217.88 343.093 216.438C342.419 214.351 340.567 212.915 339.047 211.333C337.203 209.394 335.767 207.104 334.823 204.601C333.879 202.097 333.446 199.43 333.55 196.757C333.632 194.899 333.973 193.011 333.55 191.2C333.127 189.389 331.627 187.636 329.769 187.719C325.524 187.906 320.177 188.222 317.95 184.604C317.155 183.313 316.809 181.423 317.959 180.434C318.769 179.736 319.966 179.802 321.03 179.906L330.594 180.847C332.831 181.067 335.248 181.248 337.168 180.079C339.087 178.91 339.919 175.807 338.142 174.432C336.843 173.427 334.516 173.481 334.139 171.884C333.825 170.553 335.298 169.043 334.502 167.931C333.932 167.134 332.649 167.355 331.872 167.953C331.094 168.551 330.53 169.425 329.66 169.877C328.134 170.671 326.311 169.916 324.669 169.402C323.027 168.889 320.826 168.845 320.03 170.369C319.139 172.074 320.82 174.308 319.936 176.017C318.767 178.275 314.81 176.989 313.169 178.932C311.286 181.162 314.45 184.486 313.815 187.334C313.004 187.735 312.103 187.92 311.2 187.869C310.297 187.818 309.422 187.534 308.661 187.045C307.913 186.536 307.316 185.834 306.936 185.013C306.555 184.193 306.403 183.284 306.498 182.385C306.655 181.103 307.323 179.796 306.875 178.585C306.513 177.606 305.53 177.023 304.616 176.518L295.323 171.384C294.46 172.985 295.551 174.968 296.915 176.17C298.279 177.372 299.988 178.277 300.884 179.859C301.451 180.955 301.578 182.226 301.24 183.412C300.901 184.598 300.122 185.611 299.062 186.242C298.929 186.334 298.778 186.396 298.619 186.424C298.46 186.451 298.297 186.444 298.141 186.403C297.992 186.316 297.863 186.2 297.76 186.062C297.658 185.924 297.584 185.767 297.543 185.6C295.903 181.405 293.441 177.269 289.505 175.077C285.569 172.886 279.914 173.337 277.333 177.028C276.72 177.905 276.308 178.904 275.774 179.831C272.937 184.756 266.854 187.089 261.171 186.936C260.615 186.967 260.062 186.837 259.578 186.562C258.659 185.928 258.701 184.582 258.841 183.475L259.438 178.777C259.558 177.834 259.731 176.791 260.478 176.202C261.531 175.372 263.05 175.896 264.39 175.877C265.406 175.829 266.383 175.47 267.188 174.849C267.993 174.228 268.587 173.375 268.891 172.404C269.162 171.424 269.16 170.389 268.886 169.41C268.612 168.431 268.076 167.546 267.335 166.849C266.721 166.272 265.896 165.547 266.22 164.769C266.35 164.554 266.525 164.37 266.733 164.23C266.942 164.09 267.178 163.997 267.426 163.958C269.835 163.258 272.38 163.075 274.748 162.25C277.116 161.425 279.413 159.737 279.974 157.294C280.145 156.545 280.224 155.638 280.897 155.266C281.234 155.124 281.597 155.05 281.963 155.049C283.247 154.866 284.416 154.209 285.24 153.208C286.064 152.207 286.483 150.934 286.415 149.639C287.55 148.846 289.14 149.43 290.238 150.273C291.336 151.116 292.306 152.23 293.642 152.594C296.132 153.271 298.538 151.067 301.118 151.057C302.203 151.053 303.326 151.436 304.347 151.069C305.382 150.696 306 149.666 306.794 148.905C307.589 148.144 308.982 147.68 309.716 148.5L309.091 143.875C310.349 144.193 311.66 144.238 312.937 144.007C314.213 143.776 315.426 143.275 316.493 142.537L308.421 139.811C308.14 139.741 307.881 139.602 307.666 139.407C307.079 138.776 307.662 137.791 308.139 137.073C309.281 135.355 309.473 132.526 307.595 131.67C306.314 131.087 304.843 131.787 303.613 132.473L297.722 135.757C297.535 136.876 298.904 137.511 299.753 138.265C300.266 138.721 300.629 139.322 300.795 139.988C300.961 140.655 300.921 141.356 300.681 141.999C300.44 142.643 300.011 143.198 299.449 143.593C298.887 143.988 298.219 144.204 297.532 144.213C297.92 144.717 298.19 145.302 298.321 145.924C298.452 146.547 298.442 147.191 298.29 147.809L294.326 148.094C293.881 148.183 293.419 148.093 293.041 147.843C292.617 147.466 292.674 146.807 292.576 146.248C292.339 144.901 291.019 143.957 289.672 143.715C288.325 143.472 286.947 143.783 285.613 144.089C285.047 144.293 284.425 144.279 283.869 144.049C283.55 143.842 283.307 143.536 283.179 143.178C282.594 141.761 283.14 140.095 284.08 138.883C285.019 137.671 286.304 136.785 287.459 135.775C290.22 133.353 292.249 130.208 293.316 126.694C295.498 125.78 297.757 124.538 299.939 123.624C303.303 121.921 307.076 121.191 310.833 121.514L318.223 121.655C320.41 121.697 322.657 121.751 324.681 122.584C326.704 123.418 328.481 125.222 328.621 127.405C328.663 127.652 328.642 127.906 328.559 128.143C328.476 128.379 328.334 128.591 328.147 128.758C327.861 128.914 327.538 128.987 327.213 128.968C325.172 129.04 324.302 129.548 322.262 129.62Z" fill="#3F3D56"/>
<path d="M263.36 152.773C263.649 152.5 263.857 152.152 263.961 151.769C264.065 151.385 264.061 150.98 263.95 150.599C263.247 150.328 262.483 150.258 261.743 150.398C261.003 150.538 260.317 150.881 259.762 151.39C259.324 151.832 258.946 152.331 258.64 152.872C257.668 154.456 256.81 156.348 257.372 158.118C257.418 158.312 257.502 158.493 257.619 158.654C257.736 158.814 257.884 158.949 258.055 159.051C258.307 159.153 258.579 159.195 258.85 159.176C259.92 159.174 260.988 159.109 262.05 158.979C262.702 158.899 263.46 158.715 263.712 158.109C264.043 157.311 263.241 156.409 263.475 155.578C263.629 155.206 263.862 154.873 264.158 154.6C264.304 154.463 264.417 154.294 264.487 154.106C264.557 153.917 264.582 153.715 264.56 153.515C264.466 153.125 263.869 152.904 263.654 153.243" fill="#3F3D56"/>
<path d="M268.907 145.584C267.957 145.365 266.977 145.304 266.007 145.402C265.793 145.395 265.58 145.443 265.389 145.542C265.204 145.678 265.07 145.872 265.008 146.093C264.804 146.751 264.854 147.461 265.149 148.083C265.445 148.705 265.964 149.193 266.603 149.45C266.952 149.53 267.286 149.664 267.593 149.847C268.413 150.483 267.89 151.783 268.045 152.81C268.22 153.962 269.335 154.929 269.131 156.076C268.97 156.98 268.004 157.696 268.159 158.601C268.322 159.549 269.525 159.833 270.484 159.909C271.04 160.007 271.612 159.941 272.131 159.721C272.652 159.365 273.022 158.829 273.17 158.216C273.563 157.048 273.728 155.815 273.656 154.585C273.652 154.026 273.511 153.476 273.247 152.983C272.958 152.592 272.638 152.226 272.29 151.887C270.452 149.751 272.387 146.564 268.907 145.584Z" fill="#3F3D56"/>
<path opacity="0.8" d="M510.493 312.94C510.493 312.94 369.783 232.194 309.206 247.493C309.206 247.493 180.824 261.305 165.945 291.691C165.945 291.691 125.135 164.198 110.257 159.948" stroke="#FF9E00" stroke-width="2" stroke-miterlimit="10"/>
<path opacity="0.8" d="M165.945 291.691C189.539 228.794 402.091 159.098 402.091 159.098C371.909 166.748 309.206 247.493 309.206 247.493C309.206 247.493 176.573 151.023 110.257 159.948C110.257 159.948 402.304 169.51 510.493 312.94" stroke="#FF9E00" stroke-width="2" stroke-miterlimit="10"/>
<path d="M110.257 166.11C113.661 166.11 116.421 163.351 116.421 159.948C116.421 156.545 113.661 153.786 110.257 153.786C106.852 153.786 104.093 156.545 104.093 159.948C104.093 163.351 106.852 166.11 110.257 166.11Z" fill="#FF9E00"/>
<path d="M165.945 297.853C169.35 297.853 172.109 295.094 172.109 291.691C172.109 288.288 169.35 285.529 165.945 285.529C162.541 285.529 159.781 288.288 159.781 291.691C159.781 295.094 162.541 297.853 165.945 297.853Z" fill="#FF9E00"/>
<path d="M402.091 165.26C405.496 165.26 408.255 162.501 408.255 159.098C408.255 155.695 405.496 152.936 402.091 152.936C398.687 152.936 395.927 155.695 395.927 159.098C395.927 162.501 398.687 165.26 402.091 165.26Z" fill="#FF9E00"/>
<path d="M510.493 319.102C513.897 319.102 516.657 316.343 516.657 312.94C516.657 309.537 513.897 306.778 510.493 306.778C507.089 306.778 504.329 309.537 504.329 312.94C504.329 316.343 507.089 319.102 510.493 319.102Z" fill="#FF9E00"/>
<path d="M309.206 253.656C312.61 253.656 315.37 250.897 315.37 247.493C315.37 244.09 312.61 241.331 309.206 241.331C305.801 241.331 303.042 244.09 303.042 247.493C303.042 250.897 305.801 253.656 309.206 253.656Z" fill="#FF9E00"/>
</g>
<defs>
<clipPath id="clip0">
<rect width="606" height="450" fill="white"/>
</clipPath>
</defs>
</svg>
